<?xml version="1.0" encoding="utf-8"?>
<!-- Generator: Adobe Illustrator 27.5.0, SVG Export Plug-In . SVG Version: 6.00 Build 0)  -->
<svg width="175" height="35" viewBox="0 0 175 35" fill="none" version="1.1" xmlns="http://www.w3.org/2000/svg" xmlns:xlink="http://www.w3.org/1999/xlink" x="0px" y="0px"
	 viewBox="0 0 500 500" style="enable-background:new 0 0 500 500;" xml:space="preserve">
<g id="BACKGROUND">
	<g>
		<rect style="fill:#FFFFFF;" width="500" height="500"/>
		<g style="opacity:0.05;">
			<defs>
				<rect id="SVGID_1_" style="opacity:0.05;" width="500" height="500"/>
			</defs>
			<clipPath id="SVGID_00000116199871125979276370000001803946518779964800_">
				<use xlink:href="#SVGID_1_"  style="overflow:visible;"/>
			</clipPath>
			<g style="clip-path:url(#SVGID_00000116199871125979276370000001803946518779964800_);">
				<path style="fill:#1B1F2D;" d="M517.566,452.944c-1.983,18.68-7.011,37.499-18.744,52.534
					c-21.995,28.183-60.087,37.666-94.081,40.194c-22.081,1.642-44.302,0.709-66.277-1.856c-22.003-2.568-43.685-7.407-65.726-9.652
					c-21.346-2.174-42.636-0.782-63.638,3.513c-14.564,2.979-28.848,7.116-42.965,11.758c-13.061-5.497-24.613-14.857-32.854-26.243
					c-10.751-14.853-19.549-38.256-7.371-54.695c10.479-14.145,30.405-18.324,47.011-17.759c11.259,0.383,22.439,2.561,33.04,6.369
					c10.624,3.817,19.868,9.655,29.424,15.522c8.629,5.297,17.975,9.879,28.373,9.204c10.056-0.653,19.421-5.418,27.393-11.331
					c8.755-6.496,16.124-14.606,24.252-21.825c8.146-7.235,17.158-12.955,27.325-16.906c18.912-7.349,39.327-9.287,59.056-13.403
					c9.813-2.047,19.54-4.64,28.772-8.596c8.972-3.846,17.416-8.862,25.19-14.759c33.327-25.285,52.446-64.282,63.027-103.94
					c-0.024,33.858,0.117,67.717,0.164,101.573C518.965,412.706,519.687,432.961,517.566,452.944z"/>
				<path style="fill:#1B1F2D;" d="M434.524,55.54c-26.193,14.215-55.887,23.455-85.906,20.993
					c-55.029-4.513-111.438-42.611-166.664-18.626c-10.693,4.644-20.38,11.635-27.495,20.933
					c-8.2,10.716-12.669,23.567-18.242,35.707c-5.393,11.749-12.344,24.082-23.889,30.757c-11.467,6.631-26.55,6.716-35.716-3.766
					c-4.27-4.883-7.014-10.859-10.593-16.223c-3.599-5.395-8.016-10.242-13.079-14.297c-9.259-7.413-21.867-13.295-33.812-9.24
					c-11.016,3.74-16.398,14.153-13.562,25.362c3.317,13.109,14.74,21.748,20.736,33.458c10.892,21.271,6.027,48.132-7.957,66.771
					c-15.249,20.325-41.299,30.113-66.085,30.729c-0.08,0.002-0.161,0-0.241,0.002c7.133-52.819-1.67-106.921-6.35-159.617
					c-2.646-29.788-4.335-59.938-1.425-89.774c1.332-13.649,4.043-27.81,11.78-39.408c7.165-10.741,18.286-17.657,30.316-21.803
					c11.96-4.123,24.591-5.814,37.117-7.16c16.031-1.722,32.108-3.002,48.201-3.979c32.022-1.944,64.1-2.688,96.171-3.302
					c32.032-0.613,64.063-1.153,96.074-2.497c28.864-1.211,58.059-2.651,86.729,1.828c14.292,2.233,28.401,5.991,41.615,11.937
					c11.39,5.125,21.988,11.808,32.368,18.71c17.425,11.588,34.903,24.641,54.794,31.711
					C478.921,22.272,457.495,43.073,434.524,55.54z"/>
			</g>
		</g>
	</g>
</g>
<g id="OBJECTS">
	<g>
		<g style="opacity:0.3;">
			<path style="fill:#B3B3B3;" d="M382.63,277.492l-36.502-21.074l-27.148,9.808c-11.844-4.125-24.506-7.128-37.524-8.994
				l-7.369-18.072l-51.474-0.014l-7.141,18.086c-13.046,1.866-25.649,4.883-37.447,9.008l-27.234-9.822l-36.289,21.089
				l17.045,15.743c-7.083,6.847-12.25,14.157-15.429,21.72l-31.2,4.195l0.192,29.816l31.223,4.209
				c3.264,7.535,8.489,14.859,15.649,21.706l-16.843,15.757l36.502,21.074l27.148-9.808c11.844,4.125,24.505,7.128,37.548,9.008
				l7.345,18.058L275.156,429l2.23-1.325l4.91-16.761c13.046-1.866,25.673-4.869,37.471-8.994l27.234,9.822l36.289-21.089
				l-17.045-15.743c7.083-6.847,12.226-14.171,15.405-21.734l31.2-4.195l2.23-1.325l-2.423-28.491l-31.199-4.195
				c-3.289-7.549-8.513-14.873-15.674-21.72L382.63,277.492z"/>
		</g>
		<g>
			<path style="fill:#EF8181;" d="M384.86,276.168l-36.502-21.074l-27.147,9.808c-11.844-4.125-24.506-7.128-37.524-8.994
				l-7.369-18.072l-51.474-0.014l-7.141,18.086c-13.046,1.866-25.649,4.883-37.447,9.008l-27.234-9.822l-36.289,21.089
				l17.045,15.743c-7.083,6.847-12.25,14.157-15.429,21.72l-31.2,4.195l0.192,29.816l31.223,4.209
				c3.264,7.535,8.489,14.859,15.649,21.706l-16.843,15.757l36.502,21.074l27.148-9.808c11.844,4.125,24.505,7.128,37.548,9.008
				l7.344,18.058l51.474,0.014l7.141-18.086c13.046-1.866,25.673-4.869,37.471-8.994l27.234,9.822l36.289-21.089l-17.045-15.743
				c7.083-6.847,12.226-14.171,15.405-21.734l31.2-4.196l-0.192-29.816l-31.199-4.195c-3.288-7.549-8.513-14.873-15.674-21.72
				L384.86,276.168z"/>
		</g>
		<polygon style="fill:#D86A6A;" points="384.86,276.168 384.86,265.509 368.017,281.266 368.017,291.925 		"/>
		<polygon style="fill:#D86A6A;" points="116.733,265.524 116.733,276.183 133.778,291.926 133.778,281.267 		"/>
		<g>
			<path style="fill:#FF9797;" d="M384.86,265.509l-36.502-21.074l-27.147,9.808c-11.844-4.125-24.506-7.128-37.524-8.994
				l-7.369-18.072l-51.474-0.014l-7.141,18.086c-13.046,1.866-25.649,4.883-37.447,9.008l-27.234-9.822l-36.289,21.089
				l17.045,15.743c-7.083,6.847-12.25,14.157-15.429,21.72l-31.2,4.195l0.192,29.816l31.223,4.209
				c3.264,7.535,8.489,14.859,15.649,21.706L117.37,378.67l36.502,21.074l27.148-9.808c11.844,4.125,24.505,7.128,37.548,9.008
				l7.344,18.058l51.474,0.014l7.141-18.086c13.046-1.866,25.673-4.869,37.471-8.994l27.234,9.822l36.289-21.089l-17.045-15.743
				c7.083-6.847,12.226-14.171,15.405-21.734l31.2-4.195l-0.192-29.816l-31.199-4.195c-3.288-7.549-8.513-14.873-15.674-21.72
				L384.86,265.509z"/>
		</g>
		<polygon style="fill:#D86A6A;" points="153.872,410.403 153.872,399.744 181.02,389.936 181.02,400.595 		"/>
		<polygon style="fill:#D86A6A;" points="225.912,417.002 225.912,427.661 218.568,409.603 218.568,398.944 		"/>
		<polygon style="fill:#D86A6A;" points="277.387,427.675 277.387,417.016 284.528,398.93 284.528,409.589 		"/>
		<polygon style="fill:#D86A6A;" points="349.233,410.417 349.233,399.757 321.999,389.936 321.999,400.595 		"/>
		<polygon style="fill:#D86A6A;" points="383.881,351.851 383.881,341.192 415.081,336.996 415.081,347.655 		"/>
		<polygon style="fill:#D86A6A;" points="118.564,351.866 118.564,341.207 87.341,336.998 87.341,347.657 		"/>
		<polygon style="fill:#EF8181;" points="117.37,378.67 117.37,389.329 153.872,410.403 153.872,399.744 		"/>
		<polygon style="fill:#EF8181;" points="385.521,389.328 385.521,378.669 349.233,399.757 349.233,410.417 		"/>
		<g>
			
				<ellipse transform="matrix(0.0028 -1 1 0.0028 -69.935 571.5945)" style="fill:none;stroke:#FFFFFF;stroke-miterlimit:10;" cx="251.641" cy="320.864" rx="73.567" ry="127.009"/>
		</g>
	</g>
	<g>
		<g style="opacity:0.2;">
			<path style="fill:#808080;" d="M354.685,289.045l-78.847-45.522c-1.548-0.894-4.053-0.894-5.588-0.002l-7.156,4.159
				c-1.535,0.892-1.527,2.343,0.021,3.237l78.847,45.522c1.548,0.894,4.053,0.894,5.588,0.002l7.156-4.159
				C356.241,291.389,356.233,289.939,354.685,289.045z"/>
		</g>
		<path style="fill:#1B1F2D;" d="M341.575,104.219l-58.19-33.596c-2.836-1.638-5.394-1.744-7.216-0.606l-3.037,1.751l1.228,0.224
			c-0.616,1.131-0.972,2.581-0.977,4.332l-0.46,162.434c-0.018,6.326,4.432,14.034,9.938,17.213l58.19,33.596
			c1.57,0.906,3.05,1.332,4.373,1.352l-0.341,1.107l3.026-1.744c0.001,0,0.001-0.001,0.002-0.001l0.016-0.009l-0.002-0.001
			c1.801-1.035,2.919-3.25,2.928-6.404l0.46-162.434C351.917,113.481,347.08,107.397,341.575,104.219z"/>
		<g>
			<path style="fill:#31394C;" d="M338.246,106.151l-58.19-33.596c-5.505-3.178-9.985-0.626-10.003,5.7l-0.461,162.434
				c-0.018,6.326,4.432,14.034,9.938,17.213l58.19,33.596c5.505,3.178,9.985,0.626,10.003-5.7l0.46-162.434
				C348.587,115.414,343.751,109.33,338.246,106.151z"/>
		</g>
		<g>
			<path style="fill:#1B1F2D;" d="M337.856,107.81l-57.426-33.155c-4.812-2.778-8.737-0.541-8.752,4.988l-0.458,161.537
				c-0.016,5.529,3.884,12.283,8.695,15.061l57.426,33.155c4.812,2.778,8.742,0.544,8.758-4.985l0.458-161.537
				C346.557,116.123,342.667,110.588,337.856,107.81z"/>
		</g>
		<g>
			<path style="fill:#546FBF;" d="M337.72,109.634l-7.255-4.189c-0.444-0.257-0.809-0.074-0.87,0.402
				c-0.394,3.022-2.823,4.126-5.749,2.437l-29.45-17.003c-2.926-1.689-5.341-5.591-5.717-9.057
				c-0.058-0.545-0.415-1.144-0.864-1.403c-1.387-0.801-4.356-2.515-7.255-4.189c-4.08-2.356-7.396-0.466-7.41,4.223l-0.456,160.815
				c-0.013,4.682,3.281,10.395,7.362,12.751l57.161,33.002c4.08,2.356,7.396,0.46,7.41-4.223l0.456-160.815
				C345.095,117.696,341.8,111.989,337.72,109.634z"/>
		</g>
		<g>
			<g>
				<path style="fill:#F24B4B;" d="M312.75,192.458l-19.561-11.294c-0.764-0.441-1.389-0.091-1.392,0.787s0.619,1.954,1.383,2.395
					l19.561,11.294c0.764,0.441,1.389,0.085,1.392-0.793S313.514,192.899,312.75,192.458"/>
				<path style="fill:#F24B4B;" d="M322.812,198.267l-5.131-2.963c-0.764-0.441-1.384-0.088-1.386,0.79s0.613,1.951,1.377,2.392
					l5.131,2.963c0.764,0.441,1.384,0.082,1.386-0.796S323.576,198.708,322.812,198.267"/>
			</g>
			<g>
				<path style="fill:#FF9797;" d="M319.882,204.877l-23.836-13.762c-0.439-0.253-0.792-0.052-0.794,0.452
					c-0.001,0.498,0.35,1.106,0.789,1.36l23.836,13.762c0.434,0.25,0.787,0.049,0.788-0.449
					C320.667,205.735,320.316,205.127,319.882,204.877"/>
				<path style="fill:#FF9797;" d="M319.862,212.056l-4.389-2.534c-0.434-0.25-0.787-0.049-0.788,0.455
					c-0.001,0.498,0.35,1.106,0.783,1.356l4.389,2.534c0.433,0.25,0.787,0.049,0.788-0.449
					C320.647,212.914,320.296,212.306,319.862,212.056"/>
				<path style="fill:#FF9797;" d="M312.189,207.626l-16.164-9.332c-0.439-0.253-0.792-0.052-0.794,0.452
					c-0.001,0.498,0.35,1.106,0.788,1.36l16.164,9.332c0.439,0.253,0.792,0.052,0.794-0.446
					C312.979,208.487,312.628,207.879,312.189,207.626"/>
				<path style="fill:#FF9797;" d="M321.785,209.574l-17.594-10.158c-0.434-0.25-0.787-0.049-0.788,0.449
					c-0.001,0.498,0.35,1.106,0.783,1.356l17.594,10.158c0.439,0.253,0.792,0.052,0.794-0.446
					C322.575,210.435,322.224,209.827,321.785,209.574"/>
				<path style="fill:#FF9797;" d="M300.951,197.545l-6.833-3.945c-0.433-0.25-0.787-0.049-0.788,0.449
					c-0.001,0.498,0.35,1.106,0.783,1.356l6.833,3.945c0.433,0.25,0.787,0.049,0.788-0.449
					C301.735,198.403,301.384,197.795,300.951,197.545"/>
			</g>
		</g>
		<g>
			<path style="fill:#D0D9F2;" d="M308.984,122.24c-0.201-0.116-0.403-0.217-0.601-0.308c-1.453-0.676-2.944-1.207-4.241-1.151
				c-1.113,0.05-2.096,0.561-2.583,1.64c-0.262,0.578-0.389,1.303-0.337,2.119c0.01,0.1,0.016,0.202,0.032,0.318
				c-0.099-0.086-0.201-0.158-0.304-0.217c-0.421-0.243-0.861-0.277-1.214-0.16c-0.81,0.281-1.084,1.345-1.223,2.394
				c-0.161,1.248-0.138,2.602-0.017,4.013c0.063,0.704,0.164,1.417,0.287,2.143c0.048,0.296,0.101,0.589,0.155,0.888
				c-0.906-0.348-1.632,1.116-0.877,3.036c0.692,1.764,1.29,3.689,2.075,4.142c0.04,0.023,0.081,0.043,0.122,0.058
				c0.103,0.035,0.201,0.047,0.288,0.035c0.64,2.222,1.643,4.391,2.891,6.297l-0.013,4.527l-11.642-0.005
				c-1.178,0.037-1.973,0.913-2.129,2.344l-0.992,9.256c0,0,6.975,7.6,19.984,15.112c11.466,6.62,20.01,7.979,20.01,7.979
				l-0.942-10.385c-0.142-1.598-0.924-3.377-2.087-4.772l-11.479-13.332l0.013-4.533c1.26-0.457,2.273-1.463,2.923-2.94
				c0.087,0.112,0.184,0.212,0.287,0.297c0.041,0.032,0.082,0.06,0.122,0.083c0.785,0.453,1.392-0.775,2.092-1.736
				c0.752-1.025,0.069-3.272-0.814-4.006c0.102-1.556,0.063-3.2-0.051-4.876c-0.115-1.65-0.19-3.876-1.335-5.642
				c-0.059-0.09-0.124-0.178-0.189-0.259c0.174-0.155,0.294-0.379,0.339-0.703c0.144-1.002-0.52-2.221-1.392-2.999
				c-0.36-0.319-0.741-0.585-1.124-0.806c-0.089-0.052-0.179-0.101-0.268-0.148c0.044-0.162,0.066-0.342,0.067-0.535
				c-0.013-1.136-0.731-2.493-1.635-3.345c-0.353-0.333-0.706-0.596-1.057-0.798c-0.327-0.188-0.651-0.325-0.97-0.415
				c-0.011-0.069-0.021-0.143-0.043-0.218c-0.124-0.414-0.432-0.867-0.708-1.201C309.966,122.898,309.476,122.524,308.984,122.24"/>
		</g>
		<g>
			<g>
				<path style="fill:#F24B4B;" d="M320.999,225.221c-5.022-2.9-9.109-0.571-9.125,5.204c-0.016,5.771,4.043,12.803,9.066,15.703
					c5.026,2.901,9.109,0.571,9.125-5.2C330.081,235.152,326.024,228.122,320.999,225.221z"/>
			</g>
			<g>
				<path style="fill:#FFFFFF;" d="M320.977,232.941c-2.771-1.6-4.104-1.458-4.86-1.178c-0.759,0.274-1.109,1.313-0.976,1.987
					c0.079,0.396,0.322,0.954,0.51,1.35c0.101,0.213,0.258,0.389,0.421,0.483c0.058,0.034,0.117,0.057,0.175,0.068l1.849,0.348
					c0.218,0.041,0.366-0.109,0.367-0.371l0.003-1.15c0.001-0.229,0.107-0.385,0.287-0.381c0.816,0.021,2.218,0.811,2.218,0.811
					s1.405,0.829,2.215,1.748c0.179,0.203,0.288,0.484,0.287,0.712l-0.003,1.15c-0.001,0.262,0.143,0.581,0.361,0.792l1.849,1.787
					c0.056,0.055,0.115,0.099,0.173,0.133c0.162,0.093,0.319,0.1,0.421,0.003c0.19-0.178,0.435-0.454,0.516-0.758
					c0.14-0.517-0.206-1.957-0.958-3.104C325.076,236.22,323.751,234.543,320.977,232.941"/>
			</g>
		</g>
		<g>
			<g>
				<path style="fill:#91AAF2;" d="M295.645,210.544c-5.026-2.902-9.112-0.573-9.128,5.202c-0.016,5.771,4.043,12.803,9.069,15.704
					c5.022,2.9,9.109,0.571,9.125-5.2C304.727,220.475,300.667,213.443,295.645,210.544z"/>
			</g>
			<g>
				<path style="fill:#FFFFFF;" d="M292.898,214.003c-0.024-0.014-0.048-0.026-0.072-0.036c-0.311-0.132-0.738-0.282-1.011-0.255
					c-0.466,0.045-0.986,0.904-0.893,2.076c0.093,1.172,0.47,3.117,2.423,6.5c1.953,3.387,3.453,4.688,4.424,5.36
					c0.08,0.055,0.16,0.106,0.24,0.152c0.893,0.516,1.766,0.479,2.014,0.131c0.161-0.217,0.246-0.663,0.289-0.996
					c0.033-0.239-0.088-0.564-0.293-0.8l-1.745-2.004c-0.075-0.085-0.156-0.153-0.236-0.199c-0.139-0.08-0.276-0.098-0.38-0.039
					l-0.711,0.405c-0.1,0.057-0.238,0.046-0.377-0.035c-0.054-0.031-0.107-0.072-0.159-0.123c-0.852-0.835-1.853-2.543-1.853-2.543
					s-0.975-1.718-1.274-2.869c-0.067-0.256-0.005-0.461,0.136-0.541l0.708-0.407c0.164-0.09,0.203-0.355,0.105-0.648l-0.86-2.508
					C293.282,214.359,293.099,214.118,292.898,214.003"/>
			</g>
		</g>
		<g>
			<path style="fill:#31394C;" d="M313.74,97.515l-10.16-5.866c-0.287-0.166-0.516-0.036-0.516,0.294
				c-0.001,0.324,0.226,0.717,0.513,0.882l10.16,5.866c0.282,0.163,0.516,0.036,0.516-0.288
				C314.254,98.074,314.022,97.678,313.74,97.515"/>
		</g>
		<g>
			<path style="fill:#31394C;" d="M317.385,99.313c-0.531-0.307-0.961-0.062-0.962,0.548c-0.002,0.604,0.425,1.343,0.956,1.65
				c0.526,0.303,0.961,0.062,0.962-0.542C318.343,100.359,317.91,99.617,317.385,99.313"/>
		</g>
		<g>
			<path style="fill:#1B1F2D;" d="M317.383,99.564c-0.412-0.238-0.743-0.049-0.745,0.424c-0.001,0.467,0.328,1.038,0.74,1.275
				c0.406,0.235,0.738,0.046,0.739-0.421C318.119,100.369,317.789,99.799,317.383,99.564"/>
		</g>
		<g>
			<path style="fill:#31394C;" d="M317.381,100.218c-0.098-0.056-0.174-0.013-0.174,0.099c0,0.106,0.075,0.237,0.173,0.293
				c0.092,0.053,0.168,0.01,0.168-0.096C317.549,100.402,317.473,100.271,317.381,100.218"/>
		</g>
		<g style="opacity:0.1;">
			<g>
				<path style="fill:#FFFFFF;" d="M330.465,105.445c-0.444-0.257-0.808-0.074-0.87,0.402c-0.394,3.022-2.823,4.127-5.749,2.437
					l-29.45-17.003c-2.585-1.492-4.768-4.711-5.502-7.83l-15.786,12.015l-0.17,60.155l62.302-47.419L330.465,105.445z"/>
			</g>
			<g>
				<polygon style="fill:#FFFFFF;" points="272.859,183.32 272.822,196.331 345.028,141.374 345.065,128.363 				"/>
			</g>
			<g>
				<path style="fill:#FFFFFF;" d="M272.694,241.669c-0.013,4.682,3.281,10.395,7.362,12.751l17.137,9.894l47.589-36.221
					l0.171-60.156l-72.205,54.957L272.694,241.669z"/>
			</g>
			<g>
				<polygon style="fill:#FFFFFF;" points="327.542,281.837 344.667,268.803 344.703,255.792 317.842,276.237 				"/>
			</g>
		</g>
		<g>
			<path style="fill:#91AAF2;" d="M368.263,201.113l-9.022-5.209c-0.303-0.175-0.548-0.03-0.549,0.319
				c-0.001,0.349,0.242,0.77,0.546,0.945l9.022,5.209c0.303,0.175,0.553,0.039,0.555-0.31
				C368.815,201.718,368.567,201.288,368.263,201.113"/>
			<path style="fill:#91AAF2;" d="M372.043,206.151l-12.81-7.396c-0.303-0.175-0.548-0.036-0.549,0.313
				c-0.001,0.349,0.242,0.776,0.546,0.951l12.81,7.396c0.303,0.175,0.548,0.03,0.549-0.319
				C372.589,206.747,372.346,206.326,372.043,206.151"/>
			<path style="fill:#91AAF2;" d="M380.409,210.981l-5.478-3.163c-0.303-0.175-0.553-0.039-0.554,0.31
				c-0.001,0.349,0.247,0.779,0.551,0.954l5.478,3.163c0.303,0.175,0.553,0.033,0.555-0.316
				C380.961,211.581,380.713,211.156,380.409,210.981"/>
			<path style="fill:#91AAF2;" d="M363.793,204.244l-4.568-2.637c-0.304-0.175-0.548-0.036-0.549,0.313
				c-0.001,0.349,0.242,0.77,0.546,0.945l4.568,2.637c0.303,0.175,0.548,0.036,0.549-0.313
				C364.34,204.84,364.097,204.419,363.793,204.244"/>
			<path style="fill:#91AAF2;" d="M375.297,210.886l-9.114-5.262c-0.303-0.175-0.553-0.039-0.554,0.31s0.247,0.773,0.551,0.948
				l9.114,5.262c0.303,0.175,0.548,0.036,0.549-0.313C375.843,211.482,375.6,211.061,375.297,210.886"/>
			<path style="fill:#91AAF2;" d="M367.004,208.948l-7.786-4.496c-0.303-0.175-0.548-0.03-0.549,0.319
				c-0.001,0.349,0.242,0.77,0.546,0.945l7.787,4.496c0.303,0.175,0.548,0.036,0.549-0.313
				C367.55,209.55,367.307,209.123,367.004,208.948"/>
			<path style="fill:#91AAF2;" d="M372.027,211.848l-2.563-1.48c-0.303-0.175-0.548-0.03-0.549,0.319s0.242,0.77,0.546,0.945
				l2.563,1.48c0.303,0.175,0.548,0.036,0.549-0.313C372.573,212.451,372.33,212.023,372.027,211.848"/>
			<path style="fill:#91AAF2;" d="M377.415,206.396l-7.212-4.164c-0.303-0.175-0.548-0.03-0.549,0.319
				c-0.001,0.349,0.242,0.77,0.546,0.945l7.212,4.164c0.303,0.175,0.553,0.039,0.555-0.31
				C377.967,207.002,377.719,206.572,377.415,206.396"/>
			<path style="fill:#1B1F2D;" d="M372.299,198.322l-12.674-7.317c-0.504-0.291-0.917-0.055-0.919,0.53
				c-0.002,0.579,0.409,1.29,0.913,1.581l12.674,7.317c0.509,0.294,0.922,0.059,0.924-0.52
				C373.218,199.327,372.808,198.616,372.299,198.322"/>
			<path style="fill:#1B1F2D;" d="M380.21,202.889l-4.747-2.741c-0.509-0.294-0.922-0.059-0.924,0.527
				c-0.002,0.579,0.409,1.29,0.918,1.584l4.747,2.74c0.509,0.294,0.922,0.059,0.924-0.52
				C381.13,203.895,380.719,203.184,380.21,202.889"/>
		</g>
		<g>
			<path style="fill:#91AAF2;" d="M368.019,222.043l-9.022-5.209c-0.303-0.175-0.548-0.029-0.549,0.319
				c-0.001,0.349,0.242,0.77,0.545,0.945l9.022,5.209c0.303,0.175,0.553,0.039,0.555-0.31
				C368.571,222.648,368.323,222.218,368.019,222.043"/>
			<path style="fill:#91AAF2;" d="M371.799,227.081l-12.81-7.396c-0.303-0.175-0.548-0.036-0.549,0.313
				c-0.001,0.349,0.242,0.776,0.546,0.951l12.81,7.396c0.303,0.175,0.548,0.029,0.549-0.319
				C372.345,227.678,372.102,227.257,371.799,227.081"/>
			<path style="fill:#91AAF2;" d="M380.165,231.912l-5.478-3.163c-0.303-0.175-0.553-0.039-0.554,0.31
				c-0.001,0.349,0.247,0.779,0.551,0.954l5.478,3.163c0.303,0.175,0.553,0.033,0.555-0.316
				C380.717,232.511,380.469,232.087,380.165,231.912"/>
			<path style="fill:#91AAF2;" d="M363.549,225.175l-4.568-2.637c-0.303-0.175-0.548-0.036-0.549,0.313
				c-0.001,0.349,0.242,0.77,0.546,0.945l4.568,2.637c0.303,0.175,0.548,0.036,0.549-0.313
				C364.095,225.771,363.852,225.35,363.549,225.175"/>
			<path style="fill:#91AAF2;" d="M375.053,231.816l-9.114-5.262c-0.303-0.175-0.553-0.039-0.555,0.31
				c-0.001,0.349,0.247,0.773,0.551,0.948l9.114,5.262c0.303,0.175,0.548,0.036,0.549-0.313
				C375.599,232.413,375.356,231.992,375.053,231.816"/>
			<path style="fill:#91AAF2;" d="M366.76,229.878l-7.786-4.495c-0.303-0.175-0.548-0.03-0.549,0.319
				c-0.001,0.349,0.242,0.77,0.545,0.945l7.787,4.496c0.303,0.175,0.548,0.036,0.549-0.313
				C367.306,230.481,367.063,230.054,366.76,229.878"/>
			<path style="fill:#91AAF2;" d="M371.783,232.779l-2.563-1.48c-0.303-0.175-0.548-0.03-0.549,0.319
				c-0.001,0.349,0.242,0.77,0.546,0.945l2.563,1.48c0.303,0.175,0.548,0.036,0.549-0.313
				C372.329,233.381,372.086,232.954,371.783,232.779"/>
			<path style="fill:#91AAF2;" d="M377.171,227.327l-7.212-4.164c-0.303-0.175-0.548-0.029-0.549,0.319
				c-0.001,0.349,0.242,0.77,0.546,0.945l7.212,4.164c0.303,0.175,0.553,0.039,0.555-0.31
				C377.723,227.932,377.475,227.502,377.171,227.327"/>
			<path style="fill:#1B1F2D;" d="M372.054,219.252l-12.674-7.317c-0.504-0.291-0.917-0.056-0.919,0.53
				c-0.002,0.579,0.409,1.29,0.913,1.581l12.674,7.317c0.509,0.294,0.922,0.059,0.924-0.52
				C372.974,220.257,372.564,219.546,372.054,219.252"/>
			<path style="fill:#1B1F2D;" d="M379.966,223.82l-4.747-2.74c-0.509-0.294-0.923-0.059-0.924,0.527
				c-0.002,0.579,0.409,1.29,0.918,1.584l4.747,2.741c0.509,0.294,0.922,0.059,0.924-0.521
				C380.885,224.825,380.475,224.114,379.966,223.82"/>
		</g>
		<g>
			<path style="fill:#F24B4B;" d="M361.185,178.594c-0.401-0.232-0.725-0.793-0.724-1.254l0.038-13.374
				c0.001-0.461,0.327-0.647,0.728-0.415l16.895,9.754c0.401,0.231,0.725,0.793,0.724,1.254l-0.038,13.374
				c-0.001,0.461-0.328,0.647-0.728,0.415l-10.035-5.794c-0.509-0.294-0.992-0.348-1.356-0.147l-2.925,1.598l0.005-1.7
				c0.003-1.22-0.861-2.717-1.923-3.33L361.185,178.594 M378.127,171.923l-16.895-9.755c-1.062-0.613-1.932-0.118-1.935,1.103
				l-0.038,13.374c-0.004,1.22,0.861,2.717,1.923,3.33l0.661,0.382c0.401,0.232,0.725,0.793,0.724,1.254l-0.005,1.837
				c-0.002,0.535,0.273,1.174,0.706,1.636c0.141,0.15,0.292,0.269,0.444,0.356c0.298,0.172,0.586,0.207,0.809,0.086l3.012-1.648
				c0.136-0.071,0.32-0.052,0.51,0.057l10.035,5.794c1.062,0.613,1.932,0.117,1.935-1.103l0.038-13.374
				C380.053,174.033,379.189,172.536,378.127,171.923"/>
			<path style="fill:#F24B4B;" d="M364.5,171.296c-0.872-0.504-1.585-0.098-1.587,0.905c-0.003,1.003,0.705,2.228,1.577,2.732
				c0.872,0.504,1.579,0.095,1.582-0.908C366.075,173.023,365.373,171.8,364.5,171.296"/>
			<path style="fill:#F24B4B;" d="M369.659,174.275c-0.872-0.504-1.585-0.098-1.587,0.905c-0.003,1.002,0.705,2.228,1.577,2.732
				c0.872,0.504,1.585,0.098,1.587-0.905C371.239,176.004,370.531,174.779,369.659,174.275"/>
			<path style="fill:#F24B4B;" d="M374.817,177.253c-0.872-0.504-1.584-0.098-1.587,0.905c-0.003,1.003,0.705,2.228,1.577,2.732
				c0.872,0.504,1.585,0.098,1.587-0.905C376.397,178.982,375.69,177.757,374.817,177.253"/>
		</g>
		<g>
			<path style="fill:#546FBF;" d="M244.048,168.754c-0.401-0.232-0.725-0.793-0.724-1.254l0.038-13.374
				c0.001-0.461,0.327-0.647,0.728-0.415l16.895,9.754c0.401,0.231,0.725,0.793,0.724,1.253l-0.038,13.374
				c-0.001,0.461-0.327,0.647-0.728,0.415l-10.035-5.794c-0.509-0.294-0.992-0.348-1.356-0.147l-2.924,1.598l0.005-1.7
				c0.003-1.22-0.861-2.717-1.923-3.33L244.048,168.754 M260.99,162.083l-16.895-9.754c-1.062-0.613-1.932-0.118-1.935,1.103
				l-0.038,13.374c-0.003,1.22,0.861,2.717,1.923,3.33l0.661,0.382c0.401,0.231,0.725,0.793,0.724,1.254l-0.005,1.837
				c-0.001,0.535,0.273,1.174,0.706,1.636c0.141,0.15,0.292,0.269,0.444,0.356c0.298,0.172,0.586,0.207,0.808,0.086l3.011-1.648
				c0.136-0.071,0.32-0.052,0.51,0.057l10.035,5.794c1.062,0.613,1.932,0.117,1.935-1.103l0.038-13.374
				C262.916,164.193,262.052,162.697,260.99,162.083"/>
			<path style="fill:#546FBF;" d="M247.363,161.457c-0.872-0.504-1.585-0.098-1.587,0.905c-0.003,1.002,0.705,2.228,1.577,2.732
				c0.872,0.504,1.579,0.095,1.582-0.908C248.938,163.183,248.236,161.961,247.363,161.457"/>
			<path style="fill:#546FBF;" d="M252.522,164.435c-0.872-0.504-1.585-0.098-1.587,0.905c-0.003,1.002,0.705,2.228,1.577,2.732
				c0.872,0.504,1.585,0.098,1.587-0.905C254.102,166.164,253.394,164.939,252.522,164.435"/>
			<path style="fill:#546FBF;" d="M257.68,167.413c-0.872-0.504-1.585-0.098-1.587,0.905c-0.003,1.003,0.705,2.228,1.577,2.732
				c0.872,0.504,1.585,0.098,1.587-0.905C259.26,169.143,258.553,167.917,257.68,167.413"/>
		</g>
		<g>
			<path style="fill:#1B1F2D;" d="M250.867,133.395c-6.752-3.898-12.228-13.384-12.206-21.142
				c0.022-7.758,5.534-10.899,12.286-7.001c6.757,3.901,12.228,13.384,12.206,21.142
				C263.131,134.152,257.624,137.296,250.867,133.395 M250.952,103.521c-7.581-4.377-13.767-0.845-13.792,7.866
				c-0.025,8.711,6.122,19.363,13.702,23.739c7.586,4.38,13.773,0.848,13.797-7.863S258.538,107.901,250.952,103.521"/>
			<path style="fill:#1B1F2D;" d="M250.942,107.868c-0.322-0.186-0.593-0.048-0.605,0.325l-0.317,10.313
				c-0.033,0.087-0.049,0.196-0.044,0.324c0.01,0.305,0.129,0.635,0.312,0.922c0.159,0.263,0.377,0.499,0.612,0.635
				c0.013,0.007,0.025,0.014,0.038,0.021c0.076,0.044,0.152,0.069,0.222,0.085l7.354,3.915c0.309,0.166,0.57,0.03,0.582-0.331
				c0.012-0.374-0.242-0.844-0.578-1.051l-6.734-4.194l-0.238-9.941c-0.01-0.367-0.264-0.813-0.583-1.01
				C250.955,107.876,250.948,107.872,250.942,107.868"/>
		</g>
		<g>
			<path style="fill:#F24B4B;" d="M240.861,134.52c-0.554-0.32-1.041-0.475-1.473-0.473c-0.427,0.013-0.762,0.197-1.007,0.567
				c-0.245,0.363-0.368,0.901-0.37,1.607l1.758,1.015l0.001-0.175c0.001-0.329,0.075-0.601,0.216-0.828
				c0.147-0.223,0.445-0.205,0.908,0.062c0.359,0.207,0.626,0.481,0.802,0.82c0.176,0.34,0.26,0.675,0.259,1.011
				c-0.001,0.343-0.093,0.618-0.27,0.838c-0.184,0.216-0.409,0.394-0.678,0.526c-0.275,0.129-0.671,0.278-1.184,0.458
				c-0.11,0.035-0.22,0.069-0.329,0.111c-0.11,0.042-0.226,0.087-0.354,0.132l-1.055,0.434l-0.005,1.741l5.603,3.235l0.005-1.783
				l-3.285-1.897l0-0.063l1.074-0.416l0.25-0.094c0.403-0.146,0.726-0.295,0.982-0.448c0.256-0.153,0.47-0.387,0.66-0.69
				c0.184-0.307,0.276-0.716,0.278-1.226c0.001-0.538-0.107-1.084-0.331-1.647c-0.218-0.56-0.539-1.089-0.958-1.583
				C241.931,135.264,241.432,134.851,240.861,134.52"/>
			<path style="fill:#F24B4B;" d="M246.509,143.467l1.7-2.079l-0.009,3.055L246.509,143.467 M249.974,139.978l-2.251-1.3
				l-3.027,3.833l-0.004,1.496l3.504,2.03l-0.006,2.167l1.758,1.015l0.006-2.167l0.943,0.544l0.004-1.552l-0.943-0.544
				L249.974,139.978"/>
			<polyline style="fill:#F24B4B;" points="257.387,143.159 255.708,142.189 251.674,152.94 253.353,153.91 257.387,143.159 			"/>
			<polyline style="fill:#F24B4B;" points="263.638,147.867 258.053,144.643 258.048,146.502 261.966,148.764 261.966,148.848 
				258.855,154.201 258.854,154.362 260.74,155.451 263.632,149.964 263.638,147.867 			"/>
		</g>
	</g>
	<g>
		<g>
			<g style="opacity:0.2;">
				<path style="fill:#808080;" d="M323.482,336.728l-109.881-63.44c-2.158-1.246-5.648-1.246-7.788-0.002l-43.087,25.039
					c-2.14,1.243-2.129,3.265,0.029,4.511l109.881,63.44c2.158,1.246,5.648,1.246,7.788,0.002l43.087-25.039
					C325.651,339.995,325.639,337.974,323.482,336.728z"/>
			</g>
			<g>
				<g>
					<path style="fill:#31394C;" d="M172.593,301.768l-0.179-63.165l25.883-14.937l16.794,53.572L172.593,301.768 M200.362,219.255
						l-30.753,17.75l0.197,69.589l49.057-28.317L200.362,219.255z"/>
				</g>
				<polygon style="fill:#1B1F2D;" points="211.322,276.207 215.09,277.238 198.302,223.666 195.381,225.348 				"/>
				<polygon style="fill:#1B1F2D;" points="172.583,298.555 172.592,301.768 215.09,277.243 211.311,276.207 				"/>
				<polygon style="fill:#1B1F2D;" points="165.849,234.836 169.609,237.01 169.807,306.594 166.047,304.421 				"/>
				<polygon style="fill:#1B1F2D;" points="165.849,234.836 169.609,237.01 200.365,219.255 196.604,217.082 				"/>
			</g>
			<g>
				<g>
					<path style="fill:#31394C;" d="M274.968,360.723l-0.179-63.165l25.883-14.937l16.794,53.572L274.968,360.723 M302.738,278.21
						l-30.753,17.749l0.197,69.589l49.057-28.317L302.738,278.21z"/>
				</g>
				<polygon style="fill:#1B1F2D;" points="313.697,335.162 317.466,336.193 300.677,282.621 297.756,284.303 				"/>
				<polygon style="fill:#1B1F2D;" points="274.959,357.51 274.967,360.723 317.466,336.198 313.686,335.162 				"/>
				<polygon style="fill:#1B1F2D;" points="268.224,293.791 271.984,295.965 272.183,365.549 268.422,363.376 				"/>
				<polygon style="fill:#1B1F2D;" points="268.224,293.791 271.984,295.965 302.74,278.21 298.98,276.037 				"/>
			</g>
			<path style="fill:#A6BFFF;" d="M325.108,266.434l-2.032,0.323l-109.476-63.206c-2.158-1.246-5.648-1.246-7.788-0.002
				l-43.015,24.998l-1.664-0.63l-0.004,2.926c0,0,0,0,0,0l0,0.037l0.003-0.001c0.02,0.805,0.56,1.607,1.623,2.221l109.881,63.44
				c2.158,1.246,5.648,1.246,7.788,0.002l43.087-25.039c1.123-0.652,1.647-1.519,1.586-2.375l0.011,0.004
				C325.09,269.03,325.108,266.434,325.108,266.434z"/>
			<path style="fill:#91AAF2;" d="M280.424,296.542l43.087-25.039c1.123-0.652,1.647-1.519,1.586-2.375l0.011,0.004
				c-0.017-0.102,0-2.697,0-2.697l-2.032,0.323l-15.276-8.82l-31.411,31.411v8.117C277.848,297.489,279.316,297.185,280.424,296.542
				z"/>
			<g>
				<path style="fill:#CFDEFF;" d="M323.482,263.985l-109.881-63.44c-2.158-1.246-5.648-1.246-7.788-0.002l-43.087,25.039
					c-2.14,1.243-2.129,3.265,0.029,4.511l109.881,63.44c2.158,1.246,5.648,1.246,7.788,0.002l43.087-25.039
					C325.651,267.252,325.639,265.23,323.482,263.985z"/>
			</g>
			<g>
				<path style="fill:#FFFFFF;" d="M177.501,221.213c-0.56-0.294-1.426-0.286-1.965,0.027l-7.293,4.238
					c-0.556,0.323-0.55,0.846,0.006,1.167l10.746,6.204c0.559,0.323,1.46,0.323,2.015,0l7.293-4.238
					c0.539-0.313,0.552-0.814,0.042-1.138c0.23,0.147,0.349,0.328,0.365,0.514l-9.206-0.632l0.682,5.727
					c-0.184,0.012-0.373,0.006-0.553-0.023l-0.685-5.742l-1.023-0.07l-0.124-0.592l-9.913-0.377
					c-0.052-0.105-0.064-0.215-0.042-0.32l9.887,0.375l-1.119-5.329C176.933,221.012,177.248,221.081,177.501,221.213
					 M188.321,227.46c0.005,0.003,0.01,0.006,0.016,0.01C188.332,227.466,188.326,227.463,188.321,227.46 M177.525,221.226
					c-0.007-0.004-0.014-0.008-0.021-0.011C177.511,221.219,177.518,221.223,177.525,221.226"/>
				<path style="fill:#EEF4FF;" d="M179.504,227.356l-0.556-0.038l0.685,5.742c0.18,0.028,0.369,0.035,0.553,0.023L179.504,227.356
					 M177.733,226.333l-9.887-0.375c-0.023,0.105-0.01,0.215,0.042,0.32l9.913,0.377L177.733,226.333"/>
				<path style="fill:#EEF4FF;" d="M188.296,227.445l-10.746-6.204c-0.008-0.005-0.017-0.01-0.025-0.014
					c-0.007-0.004-0.014-0.008-0.021-0.011c-0.001-0.001-0.002-0.001-0.003-0.002c-0.252-0.132-0.568-0.201-0.887-0.209l1.119,5.329
					l0.068,0.322l0.124,0.592l1.023,0.07l0.556,0.038l9.206,0.632c-0.016-0.186-0.135-0.367-0.365-0.514
					c-0.003-0.002-0.005-0.003-0.008-0.005c-0.005-0.003-0.01-0.006-0.016-0.01C188.313,227.454,188.305,227.45,188.296,227.445"/>
			</g>
			<g>
				<path style="fill:#FFFFFF;" d="M192.779,213.049c-0.56-0.294-1.426-0.286-1.965,0.027l-7.293,4.238
					c-0.556,0.323-0.55,0.846,0.007,1.167l10.746,6.204c0.559,0.323,1.46,0.323,2.015,0l7.293-4.238
					c0.539-0.313,0.552-0.814,0.042-1.138c0.23,0.147,0.349,0.328,0.365,0.514l-9.206-0.632l0.682,5.727
					c-0.184,0.012-0.373,0.005-0.553-0.023l-0.685-5.742l-1.023-0.07l-0.124-0.592l-9.913-0.377
					c-0.052-0.105-0.064-0.215-0.042-0.32l9.887,0.375l-1.119-5.329C192.212,212.848,192.527,212.917,192.779,213.049
					 M203.6,219.295c0.005,0.003,0.01,0.007,0.016,0.01C203.61,219.302,203.605,219.298,203.6,219.295 M192.804,213.062
					c-0.007-0.004-0.014-0.008-0.021-0.011C192.79,213.055,192.797,213.058,192.804,213.062"/>
				<path style="fill:#EEF4FF;" d="M194.782,219.192l-0.556-0.038l0.685,5.742c0.18,0.028,0.369,0.035,0.553,0.023L194.782,219.192
					 M193.012,218.169l-9.887-0.375c-0.023,0.105-0.01,0.215,0.042,0.32l9.913,0.377L193.012,218.169"/>
				<path style="fill:#EEF4FF;" d="M203.575,219.281l-10.746-6.204c-0.008-0.005-0.017-0.01-0.025-0.014
					c-0.007-0.004-0.014-0.008-0.021-0.011c-0.001-0.001-0.002-0.001-0.003-0.002c-0.252-0.132-0.568-0.201-0.887-0.209l1.119,5.329
					l0.068,0.322l0.124,0.592l1.023,0.07l0.556,0.038l9.206,0.632c-0.016-0.186-0.135-0.367-0.365-0.514
					c-0.003-0.002-0.005-0.003-0.008-0.005c-0.005-0.003-0.01-0.007-0.016-0.01C203.592,219.29,203.583,219.285,203.575,219.281"/>
			</g>
			<g>
				<path style="fill:#FFFFFF;" d="M208.058,204.885c-0.56-0.294-1.426-0.286-1.965,0.027l-7.293,4.238
					c-0.556,0.323-0.55,0.846,0.007,1.167l10.746,6.204c0.559,0.323,1.46,0.323,2.015,0l7.293-4.238
					c0.539-0.313,0.552-0.814,0.042-1.138c0.23,0.147,0.349,0.328,0.365,0.514l-9.206-0.632l0.682,5.727
					c-0.184,0.012-0.373,0.005-0.553-0.023l-0.685-5.742l-1.023-0.07l-0.124-0.592l-9.913-0.377
					c-0.052-0.105-0.064-0.215-0.041-0.32l9.887,0.375l-1.119-5.329C207.49,204.683,207.806,204.753,208.058,204.885
					 M218.879,211.131c0.005,0.003,0.01,0.006,0.016,0.01C218.889,211.137,218.884,211.134,218.879,211.131 M208.083,204.898
					c-0.007-0.004-0.014-0.008-0.021-0.011C208.069,204.89,208.076,204.894,208.083,204.898"/>
				<path style="fill:#EEF4FF;" d="M210.061,211.027l-0.556-0.038l0.685,5.742c0.18,0.028,0.369,0.035,0.553,0.023L210.061,211.027
					 M208.29,210.005l-9.887-0.375c-0.023,0.105-0.01,0.215,0.041,0.32l9.913,0.377L208.29,210.005"/>
				<path style="fill:#EEF4FF;" d="M218.854,211.116l-10.746-6.204c-0.008-0.005-0.017-0.01-0.025-0.014
					c-0.007-0.004-0.014-0.008-0.021-0.011c-0.001-0.001-0.002-0.001-0.003-0.002c-0.252-0.132-0.568-0.201-0.887-0.209l1.119,5.329
					l0.068,0.322l0.124,0.592l1.023,0.07l0.556,0.038l9.206,0.632c-0.016-0.186-0.135-0.367-0.365-0.514
					c-0.002-0.002-0.005-0.003-0.008-0.005c-0.005-0.003-0.01-0.007-0.016-0.01C218.87,211.126,218.862,211.121,218.854,211.116"/>
			</g>
			<g>
				<g>
					<polygon style="fill:#FFFFFF;" points="302.74,268.912 288.078,260.447 269.779,271.082 284.44,279.547 					"/>
				</g>
				<g>
					<polyline style="fill:#A6BFFF;" points="294.152,271.785 282.846,265.258 282.626,265.386 293.932,271.913 294.152,271.785 
											"/>
					<polyline style="fill:#A6BFFF;" points="293.206,272.335 281.9,265.807 281.68,265.935 292.986,272.463 293.206,272.335 					
						"/>
					<polyline style="fill:#A6BFFF;" points="292.26,272.885 280.954,266.357 280.734,266.485 292.04,273.013 292.26,272.885 					
						"/>
					<polyline style="fill:#A6BFFF;" points="291.314,273.434 280.008,266.907 279.79,267.034 291.096,273.561 291.314,273.434 
											"/>
					<polyline style="fill:#A6BFFF;" points="290.37,273.983 279.065,267.455 278.844,267.583 290.15,274.111 290.37,273.983 					
						"/>
					<polyline style="fill:#A6BFFF;" points="289.425,274.533 278.119,268.005 277.898,268.133 289.204,274.661 289.425,274.533 
											"/>
					<polyline style="fill:#A6BFFF;" points="288.479,275.082 277.173,268.555 276.952,268.683 288.258,275.21 288.479,275.082 
											"/>
					<polyline style="fill:#A6BFFF;" points="287.533,275.632 276.227,269.104 276.008,269.231 287.314,275.759 287.533,275.632 
											"/>
					<polyline style="fill:#A6BFFF;" points="286.587,276.182 275.281,269.654 275.063,269.781 286.368,276.309 286.587,276.182 
											"/>
					<polyline style="fill:#A6BFFF;" points="279.762,273.408 274.363,270.291 274.143,270.419 279.541,273.536 279.762,273.408 
											"/>
					<polyline style="fill:#F24B4B;" points="292.461,266.846 286.24,263.254 285.643,263.601 291.864,267.193 292.461,266.846 
											"/>
					<polyline style="fill:#546FBF;" points="288.803,265.946 285.216,263.875 284.794,264.121 288.381,266.191 288.803,265.946 
											"/>
				</g>
			</g>
			<g>
				<g>
					<polygon style="fill:#FFFFFF;" points="303.04,268.487 288.379,260.022 270.079,270.657 284.741,279.122 					"/>
				</g>
				<g>
					<polyline style="fill:#A6BFFF;" points="294.453,271.36 283.147,264.832 282.926,264.96 294.232,271.488 294.453,271.36 					
						"/>
					<polyline style="fill:#A6BFFF;" points="293.507,271.909 282.201,265.382 281.98,265.51 293.286,272.038 293.507,271.909 					
						"/>
					<polyline style="fill:#A6BFFF;" points="292.561,272.459 281.255,265.932 281.034,266.06 292.34,272.587 292.561,272.459 					
						"/>
					<polyline style="fill:#A6BFFF;" points="291.615,273.009 280.309,266.481 280.09,266.608 291.396,273.136 291.615,273.009 
											"/>
					<polyline style="fill:#A6BFFF;" points="290.671,273.557 279.365,267.03 279.145,267.158 290.451,273.685 290.671,273.557 
											"/>
					<polyline style="fill:#A6BFFF;" points="289.725,274.107 278.419,267.58 278.198,267.708 289.504,274.235 289.725,274.107 
											"/>
					<polyline style="fill:#A6BFFF;" points="288.779,274.657 277.473,268.129 277.253,268.257 288.559,274.785 288.779,274.657 
											"/>
					<polyline style="fill:#A6BFFF;" points="287.833,275.207 276.527,268.679 276.309,268.806 287.615,275.333 287.833,275.207 
											"/>
					<polyline style="fill:#A6BFFF;" points="286.887,275.756 275.581,269.229 275.363,269.356 286.669,275.883 286.887,275.756 
											"/>
					<polyline style="fill:#A6BFFF;" points="280.062,272.982 274.663,269.865 274.443,269.993 279.842,273.11 280.062,272.982 
											"/>
					<polyline style="fill:#F24B4B;" points="292.762,266.421 286.54,262.829 285.943,263.176 292.165,266.767 292.762,266.421 
											"/>
					<polyline style="fill:#546FBF;" points="289.103,265.521 285.517,263.45 285.094,263.695 288.681,265.766 289.103,265.521 
											"/>
				</g>
			</g>
			<g>
				<g>
					<polygon style="fill:#FFFFFF;" points="299,268.126 284.338,259.661 266.038,270.296 280.7,278.761 					"/>
				</g>
				<g>
					<polyline style="fill:#A6BFFF;" points="290.412,270.999 279.106,264.472 278.886,264.6 290.192,271.127 290.412,270.999 					
						"/>
					<polyline style="fill:#A6BFFF;" points="289.466,271.549 278.16,265.021 277.94,265.15 289.246,271.677 289.466,271.549 					
						"/>
					<polyline style="fill:#A6BFFF;" points="288.52,272.099 277.214,265.571 276.994,265.699 288.3,272.227 288.52,272.099 					
						"/>
					<polyline style="fill:#A6BFFF;" points="287.574,272.648 276.268,266.121 276.05,266.248 287.356,272.775 287.574,272.648 
											"/>
					<polyline style="fill:#A6BFFF;" points="286.63,273.197 275.324,266.669 275.104,266.797 286.41,273.325 286.63,273.197 					
						"/>
					<polyline style="fill:#A6BFFF;" points="285.684,273.747 274.378,267.219 274.158,267.347 285.464,273.875 285.684,273.747 
											"/>
					<polyline style="fill:#A6BFFF;" points="284.738,274.296 273.432,267.769 273.212,267.897 284.518,274.424 284.738,274.296 
											"/>
					<polyline style="fill:#A6BFFF;" points="283.792,274.846 272.486,268.319 272.268,268.445 283.574,274.973 283.792,274.846 
											"/>
					<polyline style="fill:#A6BFFF;" points="282.846,275.396 271.54,268.868 271.322,268.995 282.628,275.523 282.846,275.396 
											"/>
					<polyline style="fill:#A6BFFF;" points="276.022,272.622 270.623,269.505 270.402,269.633 275.801,272.75 276.022,272.622 
											"/>
					<polyline style="fill:#F24B4B;" points="288.721,266.06 282.5,262.468 281.903,262.815 288.124,266.407 288.721,266.06 					
						"/>
					<polyline style="fill:#546FBF;" points="285.063,265.16 281.476,263.089 281.054,263.335 284.641,265.406 285.063,265.16 					
						"/>
				</g>
			</g>
			<g>
				<g style="opacity:0.3;">
					<path style="fill:#CCCCCC;" d="M262.097,252.626l-17.084,9.917c-0.422,0.243-0.941,0.243-1.362-0.002l-28.221-16.424
						c-0.903-0.525-0.901-1.829,0.004-2.351l17.268-10.029c0.422-0.243,0.941-0.243,1.362,0.002l27.944,17.658
						C262.751,251.814,262.703,252.254,262.097,252.626z"/>
				</g>
				<g>
					<path style="fill:#1B1F2D;" d="M262.421,251.143c0,0-0.829,0.081-1.109-0.068l-28.646-16.692
						c-0.401-0.231-0.895-0.231-1.295,0.002l-15.778,8.539c-1.103,0.768-0.871,2.378-0.011,2.874l28.178,16.268
						c0.401,0.231,0.895,0.231,1.295-0.002l17.188-9.989C262.648,251.822,262.521,251.395,262.421,251.143L262.421,251.143z"/>
				</g>
				<g>
					<path style="fill:#31394C;" d="M232.1,213.441l0.42,19.493c-0.002,0.516,0.273,0.995,0.72,1.255l28.149,16.609
						c0.938,0.548,2.094-0.327,2.098-1.422l0.053-18.973c0.001-0.51-0.267-0.984-0.704-1.243l-28.592-16.909
						C233.285,211.686,232.032,212.278,232.1,213.441z"/>
				</g>
				<g>
					<path style="fill:#1B1F2D;" d="M232.089,213.33l-0.056,19.854c-0.001,0.516,0.273,0.995,0.72,1.255l28.142,16.417
						c0.939,0.548,2.112-0.135,2.115-1.229l0.053-18.976c0.001-0.51-0.267-0.984-0.705-1.243l-28.691-16.965
						C232.967,212.029,232.091,212.521,232.089,213.33z"/>
				</g>
				<g>
					<polygon style="fill:#546FBF;" points="233.16,213.474 233.101,232.921 261.844,249.538 261.902,230.288 					"/>
				</g>
				<g style="opacity:0.03;">
					<g>
						<polygon style="fill:#FFFFFF;" points="236.805,215.606 233.148,217.296 233.106,231.259 250.12,223.395 						"/>
					</g>
					<g>
						<polygon style="fill:#FFFFFF;" points="252.339,224.694 233.739,233.29 237.172,235.275 255.75,226.689 						"/>
					</g>
					<g>
						<polygon style="fill:#FFFFFF;" points="257.969,227.987 239.406,236.566 252.809,244.315 261.872,240.126 261.902,230.288 
													"/>
					</g>
					<g>
						<polygon style="fill:#FFFFFF;" points="258.476,247.592 261.854,246.03 261.865,242.453 255.043,245.606 						"/>
					</g>
				</g>
				<g>
					<path style="fill:#31394C;" d="M262.289,251.546l-17.277,9.97c-0.401,0.231-0.895,0.23-1.295-0.002l-28.128-16.354
						c-0.858-0.499-0.856-1.74,0.004-2.236l15.82-9.129c0.401-0.231,0.895-0.231,1.295,0.002l29.582,17.199
						C262.501,251.119,262.501,251.424,262.289,251.546z"/>
				</g>
				<g>
					<path style="fill:#CFDEFF;" d="M238.634,252.206l-4.318,2.556c-0.107,0.062-0.24,0.063-0.347,0.001l-7.559-4.365
						c-0.231-0.133-0.231-0.466-0.001-0.6l4.137-2.341c0.107-0.062,0.24-0.063,0.347-0.001l7.741,4.602
						C238.691,252.091,238.691,252.173,238.634,252.206z"/>
				</g>
				<g>
					<path style="fill:#CFDEFF;" d="M231.864,236.145l0.968,0.566c0.116,0.068,0.306,0.066,0.425-0.004l0.483-0.286
						c0.118-0.07,0.12-0.182,0.003-0.249l-0.969-0.563c-0.115-0.067-0.304-0.065-0.422,0.005l-0.481,0.284
						C231.752,235.967,231.749,236.078,231.864,236.145z"/>
					<path style="fill:#CFDEFF;" d="M233.572,237.144l0.98,0.573c0.118,0.069,0.309,0.067,0.428-0.004l0.484-0.289
						c0.118-0.071,0.119-0.184,0.001-0.252l-0.981-0.57c-0.117-0.068-0.307-0.066-0.425,0.004l-0.483,0.287
						C233.457,236.963,233.455,237.075,233.572,237.144z"/>
					<path style="fill:#CFDEFF;" d="M235.3,238.154l0.992,0.58c0.119,0.07,0.312,0.068,0.431-0.004l0.486-0.292
						c0.119-0.071,0.118-0.185-0.001-0.255l-0.993-0.577c-0.118-0.069-0.31-0.067-0.428,0.004l-0.484,0.289
						C235.183,237.972,235.182,238.085,235.3,238.154z"/>
					<path style="fill:#CFDEFF;" d="M237.049,239.177l1.004,0.587c0.12,0.07,0.315,0.069,0.434-0.003l0.487-0.294
						c0.119-0.072,0.118-0.187-0.003-0.257l-1.005-0.584c-0.12-0.07-0.313-0.068-0.432,0.004l-0.486,0.292
						C236.93,238.992,236.93,239.107,237.049,239.177z"/>
					<path style="fill:#CFDEFF;" d="M238.82,240.213l1.016,0.594c0.122,0.071,0.318,0.07,0.438-0.003l0.489-0.297
						c0.12-0.073,0.117-0.189-0.005-0.26l-1.018-0.591c-0.121-0.07-0.316-0.069-0.435,0.003l-0.487,0.295
						C238.698,240.026,238.699,240.142,238.82,240.213z"/>
					<path style="fill:#CFDEFF;" d="M240.612,241.261l1.029,0.602c0.123,0.072,0.321,0.071,0.441-0.002l0.49-0.3
						c0.12-0.073,0.117-0.191-0.007-0.263l-1.03-0.599c-0.123-0.071-0.319-0.07-0.438,0.003l-0.489,0.297
						C240.488,241.072,240.49,241.189,240.612,241.261z"/>
					<path style="fill:#CFDEFF;" d="M242.427,242.322l1.042,0.609c0.125,0.073,0.324,0.072,0.445-0.002l0.492-0.303
						c0.12-0.074,0.116-0.193-0.009-0.266l-1.043-0.606c-0.124-0.072-0.322-0.071-0.442,0.003l-0.49,0.3
						C242.301,242.131,242.303,242.25,242.427,242.322z"/>
					<path style="fill:#CFDEFF;" d="M244.265,243.397l1.055,0.617c0.126,0.074,0.327,0.073,0.448-0.002l0.493-0.305
						c0.121-0.075,0.116-0.195-0.011-0.269l-1.056-0.614c-0.126-0.073-0.325-0.072-0.445,0.002l-0.492,0.303
						C244.136,243.204,244.139,243.323,244.265,243.397z"/>
					<path style="fill:#CFDEFF;" d="M246.126,244.485l1.068,0.624c0.128,0.075,0.33,0.074,0.452-0.001l0.494-0.308
						c0.121-0.076,0.115-0.197-0.013-0.272l-1.07-0.621c-0.127-0.074-0.328-0.073-0.449,0.002l-0.493,0.306
						C245.994,244.289,245.998,244.411,246.126,244.485z"/>
					<path style="fill:#CFDEFF;" d="M248.01,245.587l1.082,0.633c0.13,0.076,0.334,0.076,0.455-0.001l0.496-0.311
						c0.121-0.076,0.114-0.199-0.016-0.275l-1.083-0.629c-0.129-0.075-0.331-0.074-0.453,0.001l-0.495,0.309
						C247.875,245.389,247.881,245.511,248.01,245.587z"/>
					<path style="fill:#CFDEFF;" d="M249.918,246.703l1.095,0.64c0.131,0.077,0.337,0.077,0.459,0l0.498-0.314
						c0.122-0.077,0.114-0.201-0.018-0.278l-1.097-0.637c-0.131-0.076-0.335-0.075-0.456,0.001l-0.496,0.312
						C249.781,246.503,249.788,246.626,249.918,246.703z"/>
					<path style="fill:#CFDEFF;" d="M251.851,247.833l1.11,0.649c0.133,0.078,0.34,0.078,0.463,0l0.499-0.317
						c0.122-0.078,0.113-0.203-0.02-0.281l-1.111-0.646c-0.132-0.077-0.338-0.077-0.46,0l-0.498,0.315
						C251.711,247.63,251.719,247.756,251.851,247.833z"/>
					<path style="fill:#CFDEFF;" d="M253.808,248.978l1.124,0.657c0.135,0.079,0.344,0.079,0.467,0.001l0.5-0.32
						c0.122-0.078,0.112-0.206-0.023-0.284l-1.125-0.654c-0.134-0.078-0.341-0.078-0.464,0l-0.499,0.318
						C253.666,248.773,253.675,248.899,253.808,248.978z"/>
					<path style="fill:#CFDEFF;" d="M257.877,250.194l-1.14-0.662c-0.136-0.079-0.345-0.079-0.467-0.001l-0.501,0.321
						c-0.123,0.079-0.113,0.207,0.023,0.286l1.139,0.666c0.137,0.08,0.347,0.08,0.47,0.001l0.502-0.323
						C258.025,250.402,258.014,250.273,257.877,250.194z"/>
					<path style="fill:#CFDEFF;" d="M230.286,237.14l0.888,0.525c0.145,0.085,0.382,0.083,0.531-0.005l0.877-0.521
						c0.148-0.088,0.15-0.228,0.006-0.313l-0.89-0.521c-0.144-0.084-0.38-0.082-0.528,0.006l-0.875,0.517
						C230.146,236.915,230.142,237.055,230.286,237.14z"/>
					<path style="fill:#CFDEFF;" d="M234.239,237.794l-0.9-0.527c-0.146-0.085-0.383-0.083-0.532,0.005l-0.877,0.521
						c-0.149,0.088-0.152,0.229-0.007,0.315l0.898,0.531c0.146,0.086,0.386,0.084,0.535-0.005l0.88-0.525
						C234.384,238.021,234.385,237.879,234.239,237.794z"/>
					<path style="fill:#CFDEFF;" d="M235.91,238.772l-0.911-0.534c-0.147-0.086-0.387-0.084-0.535,0.005l-0.88,0.526
						c-0.149,0.089-0.151,0.232-0.004,0.319l0.909,0.537c0.148,0.088,0.389,0.086,0.539-0.004l0.882-0.53
						C236.057,239.002,236.058,238.859,235.91,238.772z"/>
					<path style="fill:#CFDEFF;" d="M231.111,239.584l0.901,0.539c0.147,0.088,0.387,0.086,0.538-0.004l0.886-0.53
						c0.15-0.09,0.151-0.233,0.004-0.32l-0.903-0.535c-0.146-0.087-0.385-0.085-0.534,0.004l-0.884,0.527
						C230.969,239.354,230.965,239.497,231.111,239.584z"/>
					<path style="fill:#CFDEFF;" d="M228.646,238.109l1.652,0.989c0.145,0.087,0.384,0.085,0.533-0.004l0.883-0.526
						c0.149-0.089,0.152-0.23,0.007-0.316l-1.656-0.981c-0.143-0.085-0.38-0.083-0.528,0.005l-0.88,0.52
						C228.508,237.883,228.503,238.023,228.646,238.109z"/>
					<path style="fill:#CFDEFF;" d="M235.112,240.26l-0.914-0.541c-0.148-0.087-0.388-0.086-0.538,0.004l-0.886,0.531
						c-0.15,0.09-0.153,0.234-0.006,0.322l0.911,0.545c0.148,0.089,0.391,0.087,0.541-0.003l0.889-0.535
						C235.26,240.493,235.261,240.348,235.112,240.26z"/>
					<path style="fill:#CFDEFF;" d="M236.804,241.263l-0.924-0.548c-0.149-0.089-0.392-0.087-0.542,0.004l-0.889,0.536
						c-0.151,0.091-0.152,0.237-0.003,0.326l0.922,0.552c0.15,0.09,0.394,0.089,0.545-0.003l0.891-0.54
						C236.955,241.498,236.955,241.352,236.804,241.263z"/>
					<path style="fill:#CFDEFF;" d="M238.517,242.277l-0.935-0.554c-0.151-0.09-0.396-0.088-0.546,0.003l-0.892,0.54
						c-0.151,0.092-0.152,0.239-0.001,0.329l0.933,0.558c0.152,0.091,0.398,0.09,0.55-0.002l0.894-0.545
						C238.67,242.515,238.669,242.367,238.517,242.277z"/>
					<path style="fill:#CFDEFF;" d="M240.249,243.304l-0.947-0.561c-0.153-0.091-0.399-0.089-0.55,0.003l-0.894,0.545
						c-0.152,0.092-0.151,0.241,0.002,0.333l0.944,0.565c0.154,0.092,0.402,0.091,0.554-0.002l0.897-0.549
						C240.406,243.545,240.404,243.395,240.249,243.304z"/>
					<path style="fill:#CFDEFF;" d="M242.003,244.343l-0.958-0.568c-0.155-0.092-0.403-0.091-0.554,0.002l-0.897,0.55
						c-0.152,0.093-0.15,0.244,0.004,0.336l0.956,0.572c0.156,0.093,0.406,0.092,0.558-0.001l0.899-0.554
						C242.163,244.586,242.159,244.436,242.003,244.343z"/>
					<path style="fill:#CFDEFF;" d="M243.778,245.395l-0.97-0.574c-0.157-0.093-0.407-0.092-0.559,0.002l-0.9,0.555
						c-0.152,0.094-0.15,0.246,0.007,0.34l0.967,0.579c0.158,0.094,0.409,0.094,0.562-0.001l0.902-0.559
						C243.941,245.641,243.936,245.488,243.778,245.395z"/>
					<path style="fill:#CFDEFF;" d="M245.575,246.459l-0.981-0.581c-0.159-0.094-0.411-0.094-0.563,0.001l-0.902,0.56
						c-0.153,0.095-0.149,0.249,0.009,0.343l0.979,0.586c0.16,0.095,0.413,0.095,0.567,0l0.905-0.564
						C245.74,246.708,245.734,246.554,245.575,246.459z"/>
					<path style="fill:#CFDEFF;" d="M244.94,247.861l0.991,0.593c0.161,0.097,0.417,0.097,0.571,0l0.907-0.57
						c0.153-0.096,0.146-0.252-0.016-0.348l-0.993-0.589c-0.161-0.095-0.414-0.095-0.567,0.001l-0.905,0.565
						C244.774,247.61,244.78,247.765,244.94,247.861z"/>
					<path style="fill:#CFDEFF;" d="M249.253,248.979c0.154-0.097,0.145-0.254-0.018-0.352l-1.006-0.596
						c-0.162-0.096-0.418-0.096-0.571,0l-0.908,0.57c-0.154,0.097-0.147,0.254,0.015,0.351l1.003,0.601
						c0.163,0.098,0.421,0.098,0.575,0.001L249.253,248.979z"/>
					<path style="fill:#CFDEFF;" d="M251.119,250.087c0.154-0.098,0.145-0.257-0.021-0.355l-1.018-0.603
						c-0.164-0.097-0.422-0.098-0.576,0l-0.91,0.576c-0.154,0.098-0.146,0.256,0.018,0.354l1.016,0.608
						c0.165,0.099,0.425,0.1,0.58,0.001L251.119,250.087z"/>
					<path style="fill:#CFDEFF;" d="M250.481,251.177l1.029,0.616c0.167,0.1,0.429,0.101,0.584,0.002l0.915-0.586
						c0.154-0.099,0.143-0.26-0.024-0.359l-1.031-0.611c-0.167-0.099-0.426-0.099-0.58-0.001l-0.913,0.581
						C250.306,250.917,250.315,251.078,250.481,251.177z"/>
					<path style="fill:#CFDEFF;" d="M229.886,240.505c-0.151,0.09-0.155,0.234-0.009,0.322l0.901,0.545
						c0.147,0.089,0.388,0.087,0.539-0.003l0.892-0.535c0.151-0.09,0.153-0.235,0.006-0.323l-0.903-0.541
						c-0.146-0.087-0.386-0.086-0.536,0.004L229.886,240.505z"/>
					<path style="fill:#CFDEFF;" d="M226.998,239.084l2.09,1.266c0.145,0.088,0.385,0.086,0.535-0.004l0.889-0.53
						c0.15-0.09,0.154-0.233,0.009-0.32l-2.096-1.257c-0.143-0.086-0.38-0.084-0.529,0.005l-0.884,0.523
						C226.861,238.856,226.855,238.998,226.998,239.084z"/>
					<path style="fill:#CFDEFF;" d="M231.541,241.505c-0.151,0.091-0.154,0.236-0.007,0.326l0.911,0.552
						c0.148,0.09,0.392,0.089,0.543-0.003l0.894-0.539c0.151-0.091,0.153-0.237,0.004-0.326l-0.914-0.548
						c-0.148-0.089-0.389-0.087-0.54,0.003L231.541,241.505z"/>
					<path style="fill:#CFDEFF;" d="M233.211,242.846l0.922,0.558c0.15,0.091,0.395,0.09,0.547-0.002l0.897-0.544
						c0.152-0.092,0.152-0.24,0.002-0.33l-0.924-0.554c-0.149-0.09-0.393-0.088-0.544,0.003l-0.895,0.54
						C233.064,242.609,233.062,242.756,233.211,242.846z"/>
					<path style="fill:#CFDEFF;" d="M234.908,243.874l0.933,0.565c0.152,0.092,0.399,0.091,0.551-0.002l0.9-0.549
						c0.152-0.093,0.151-0.242-0.001-0.333l-0.935-0.561c-0.151-0.091-0.396-0.09-0.548,0.002l-0.897,0.545
						C234.759,243.634,234.757,243.783,234.908,243.874z"/>
					<path style="fill:#CFDEFF;" d="M236.626,244.914l0.944,0.572c0.154,0.093,0.403,0.092,0.556-0.001l0.902-0.554
						c0.152-0.094,0.151-0.244-0.003-0.337l-0.947-0.568c-0.153-0.092-0.4-0.091-0.552,0.002l-0.9,0.549
						C236.473,244.671,236.473,244.822,236.626,244.914z"/>
					<path style="fill:#CFDEFF;" d="M238.364,245.967l0.956,0.579c0.156,0.094,0.406,0.094,0.56-0.001l0.905-0.559
						c0.153-0.094,0.15-0.247-0.006-0.34l-0.958-0.574c-0.155-0.093-0.404-0.092-0.556,0.002l-0.903,0.554
						C238.208,245.721,238.209,245.873,238.364,245.967z"/>
					<path style="fill:#CFDEFF;" d="M240.123,247.032l0.967,0.586c0.158,0.095,0.41,0.095,0.564,0l0.908-0.564
						c0.153-0.095,0.149-0.249-0.008-0.344l-0.97-0.581c-0.157-0.094-0.408-0.093-0.56,0.001l-0.906,0.559
						C239.965,246.784,239.967,246.938,240.123,247.032z"/>
					<path style="fill:#CFDEFF;" d="M241.904,248.111l0.979,0.593c0.159,0.097,0.414,0.097,0.568,0l0.911-0.569
						c0.154-0.096,0.149-0.252-0.011-0.348l-0.982-0.589c-0.159-0.095-0.411-0.095-0.565,0.001l-0.908,0.565
						C241.743,247.86,241.746,248.015,241.904,248.111z"/>
					<path style="fill:#CFDEFF;" d="M243.707,249.202l0.991,0.6c0.161,0.098,0.418,0.098,0.573,0.001l0.913-0.574
						c0.154-0.097,0.148-0.254-0.014-0.351l-0.994-0.596c-0.161-0.096-0.415-0.096-0.569,0l-0.911,0.57
						C243.542,248.949,243.547,249.105,243.707,249.202z"/>
					<path style="fill:#CFDEFF;" d="M245.532,250.308l1.004,0.608c0.163,0.099,0.422,0.1,0.577,0.001l0.916-0.58
						c0.155-0.098,0.147-0.257-0.017-0.355l-1.006-0.603c-0.162-0.097-0.419-0.098-0.574-0.001l-0.914,0.575
						C245.364,250.051,245.37,250.209,245.532,250.308z"/>
					<path style="fill:#CFDEFF;" d="M248.978,252.044l0.919-0.585c0.155-0.099,0.146-0.26-0.02-0.359l-1.019-0.611
						c-0.165-0.099-0.423-0.099-0.578-0.001l-0.916,0.58c-0.155,0.098-0.148,0.259,0.016,0.358l1.016,0.615
						C248.562,252.142,248.822,252.143,248.978,252.044z"/>
					<path style="fill:#CFDEFF;" d="M253.185,253.083l-2.428-1.456c-0.167-0.1-0.428-0.101-0.583-0.002l-0.919,0.586
						c-0.156,0.099-0.147,0.261,0.019,0.362l2.423,1.467c0.169,0.102,0.433,0.104,0.59,0.003l0.924-0.595
						C253.366,253.348,253.354,253.184,253.185,253.083z"/>
					<path style="fill:#CFDEFF;" d="M229.069,242.35l0.903,0.553c0.147,0.09,0.39,0.089,0.542-0.002l0.898-0.54
						c0.152-0.091,0.155-0.238,0.007-0.327l-0.906-0.549c-0.146-0.089-0.387-0.087-0.539,0.003l-0.896,0.536
						C228.928,242.114,228.923,242.26,229.069,242.35z"/>
					<path style="fill:#CFDEFF;" d="M226.033,240.83l-1.055-0.648c-0.094-0.057-0.25-0.056-0.349,0.003l-1.315,0.777
						c-0.1,0.059-0.105,0.154-0.012,0.212l1.052,0.654c0.094,0.058,0.251,0.058,0.351-0.002l1.318-0.783
						C226.123,240.982,226.127,240.887,226.033,240.83z"/>
					<path style="fill:#CFDEFF;" d="M227.669,241.834l-1.068-0.656c-0.095-0.058-0.252-0.057-0.352,0.002l-1.319,0.784
						c-0.1,0.06-0.105,0.155-0.011,0.214l1.064,0.661c0.095,0.059,0.253,0.058,0.354-0.002l1.322-0.789
						C227.76,241.988,227.764,241.892,227.669,241.834z"/>
					<path style="fill:#CFDEFF;" d="M229.324,242.85l-1.081-0.663c-0.096-0.059-0.254-0.058-0.354,0.002l-1.323,0.79
						c-0.101,0.06-0.105,0.157-0.009,0.216l1.077,0.669c0.096,0.06,0.256,0.059,0.357-0.001l1.327-0.796
						C229.417,243.006,229.42,242.909,229.324,242.85z"/>
					<path style="fill:#CFDEFF;" d="M231.383,244.114l-1.479-0.908c-0.097-0.06-0.257-0.059-0.357,0.001l-1.327,0.798
						c-0.101,0.061-0.104,0.158-0.008,0.218l1.474,0.916c0.098,0.061,0.259,0.06,0.36-0.001l1.332-0.805
						C231.479,244.273,231.481,244.174,231.383,244.114z"/>
					<path style="fill:#CFDEFF;" d="M242.344,250.844l-1.595-0.979c-0.104-0.064-0.272-0.064-0.374-0.001l-1.353,0.844
						c-0.103,0.064-0.102,0.168,0.002,0.233l1.59,0.988c0.105,0.065,0.274,0.066,0.378,0.001l1.358-0.852
						C242.452,251.013,242.449,250.908,242.344,250.844z"/>
					<path style="fill:#CFDEFF;" d="M244.187,251.975l-1.179-0.724c-0.106-0.065-0.275-0.066-0.378-0.001l-1.358,0.854
						c-0.103,0.065-0.101,0.171,0.005,0.236l1.175,0.73c0.107,0.066,0.277,0.067,0.381,0.002l1.362-0.86
						C244.298,252.147,244.294,252.041,244.187,251.975z"/>
					<path style="fill:#CFDEFF;" d="M245.191,253.677l-1.192-0.736c-0.107-0.066-0.278-0.067-0.381-0.002l-0.495,0.313
						c-0.104,0.065-0.101,0.172,0.006,0.239l1.19,0.74c0.108,0.067,0.28,0.068,0.384,0.002l0.496-0.316
						C245.303,253.851,245.299,253.744,245.191,253.677z"/>
					<path style="fill:#CFDEFF;" d="M248.974,256.014l-1.222-0.755c-0.11-0.068-0.283-0.069-0.387-0.002l-0.498,0.319
						c-0.104,0.067-0.1,0.176,0.01,0.244l1.221,0.758c0.111,0.069,0.285,0.07,0.39,0.003l0.499-0.322
						C249.091,256.192,249.085,256.082,248.974,256.014z"/>
					<path style="fill:#CFDEFF;" d="M247.07,254.838l-1.207-0.745c-0.109-0.067-0.281-0.068-0.384-0.002l-0.497,0.316
						c-0.104,0.066-0.1,0.174,0.008,0.242l1.205,0.749c0.109,0.068,0.283,0.069,0.387,0.002l0.498-0.319
						C247.185,255.014,247.18,254.906,247.07,254.838z"/>
					<path style="fill:#CFDEFF;" d="M245.96,254.031l1.207,0.745c0.109,0.068,0.283,0.069,0.386,0.002l0.496-0.318
						c0.104-0.066,0.098-0.174-0.011-0.242l-1.209-0.742c-0.109-0.067-0.281-0.067-0.384-0.002l-0.495,0.315
						C245.847,253.856,245.851,253.964,245.96,254.031z"/>
					<path style="fill:#CFDEFF;" d="M240.04,249.429l-8.074-4.957c-0.098-0.06-0.259-0.06-0.36,0.001l-1.332,0.806
						c-0.101,0.061-0.104,0.16-0.006,0.221l8.049,5.001c0.104,0.064,0.271,0.065,0.374,0.001l1.352-0.842
						C240.145,249.596,240.144,249.493,240.04,249.429z"/>
					<path style="fill:#CFDEFF;" d="M225.34,240.064l2.868,1.757c0.145,0.089,0.386,0.088,0.538-0.003l0.895-0.535
						c0.151-0.09,0.156-0.235,0.01-0.324l-2.876-1.744c-0.143-0.087-0.38-0.085-0.53,0.004l-0.889,0.525
						C225.205,239.835,225.198,239.977,225.34,240.064z"/>
					<path style="fill:#CFDEFF;" d="M230.732,243.368l0.914,0.56c0.149,0.091,0.393,0.09,0.546-0.002l0.901-0.545
						c0.152-0.092,0.154-0.24,0.005-0.331l-0.917-0.556c-0.148-0.09-0.391-0.089-0.543,0.003l-0.898,0.541
						C230.588,243.13,230.584,243.278,230.732,243.368z"/>
					<path style="fill:#CFDEFF;" d="M232.414,244.399l0.925,0.567c0.151,0.092,0.397,0.092,0.55-0.002l0.904-0.55
						c0.152-0.093,0.154-0.242,0.003-0.334l-0.928-0.563c-0.15-0.091-0.395-0.09-0.547,0.002l-0.901,0.546
						C232.268,244.158,232.265,244.307,232.414,244.399z"/>
					<path style="fill:#CFDEFF;" d="M234.117,245.442l0.936,0.574c0.152,0.093,0.401,0.093,0.554-0.001l0.907-0.555
						c0.153-0.094,0.153-0.245,0-0.337l-0.939-0.569c-0.152-0.092-0.398-0.091-0.551,0.002l-0.904,0.55
						C233.968,245.199,233.966,245.35,234.117,245.442z"/>
					<path style="fill:#CFDEFF;" d="M235.84,246.498l0.947,0.581c0.154,0.094,0.405,0.094,0.559-0.001l0.909-0.56
						c0.154-0.094,0.152-0.247-0.002-0.341l-0.95-0.576c-0.154-0.093-0.402-0.092-0.555,0.001l-0.907,0.555
						C235.688,246.252,235.687,246.404,235.84,246.498z"/>
					<path style="fill:#CFDEFF;" d="M237.584,247.567l0.959,0.588c0.156,0.096,0.408,0.096,0.563,0l0.912-0.565
						c0.154-0.095,0.152-0.25-0.005-0.345l-0.961-0.583c-0.155-0.094-0.406-0.094-0.559,0.001l-0.91,0.56
						C237.429,247.318,237.429,247.472,237.584,247.567z"/>
					<path style="fill:#CFDEFF;" d="M239.35,248.648l0.971,0.595c0.158,0.097,0.412,0.097,0.567,0.001l0.915-0.57
						c0.154-0.096,0.151-0.252-0.007-0.348l-0.973-0.59c-0.157-0.095-0.409-0.095-0.563,0l-0.912,0.565
						C239.191,248.397,239.193,248.552,239.35,248.648z"/>
					<path style="fill:#CFDEFF;" d="M241.137,249.743l0.983,0.602c0.16,0.098,0.416,0.098,0.572,0.001l0.917-0.575
						c0.155-0.097,0.15-0.255-0.01-0.352l-0.985-0.597c-0.159-0.097-0.413-0.097-0.568,0l-0.915,0.571
						C240.975,249.489,240.978,249.646,241.137,249.743z"/>
					<path style="fill:#CFDEFF;" d="M242.946,250.852l0.995,0.61c0.162,0.099,0.42,0.1,0.576,0.002l0.92-0.581
						c0.155-0.098,0.15-0.257-0.013-0.356l-0.997-0.605c-0.161-0.098-0.417-0.098-0.572-0.001l-0.918,0.576
						C242.781,250.595,242.785,250.753,242.946,250.852z"/>
					<path style="fill:#CFDEFF;" d="M247.273,251.648l-1.01-0.613c-0.163-0.099-0.421-0.1-0.577-0.001l-0.921,0.581
						c-0.156,0.098-0.151,0.259,0.012,0.359l1.007,0.617c0.164,0.101,0.424,0.102,0.581,0.002l0.923-0.586
						C247.445,251.909,247.437,251.748,247.273,251.648z"/>
					<path style="fill:#CFDEFF;" d="M251.507,254.216l-3.385-2.053c-0.165-0.1-0.425-0.101-0.581-0.002l-0.924,0.587
						c-0.156,0.099-0.15,0.262,0.015,0.363l3.377,2.069c0.169,0.103,0.433,0.105,0.591,0.004l0.929-0.598
						C251.687,254.484,251.677,254.319,251.507,254.216z"/>
					<path style="fill:#CFDEFF;" d="M254.896,251.982l-1.044-0.618c-0.169-0.1-0.43-0.101-0.585-0.002l-0.916,0.586
						c-0.155,0.099-0.145,0.262,0.023,0.362l1.042,0.623c0.17,0.102,0.433,0.103,0.589,0.002l0.918-0.591
						C255.078,252.245,255.066,252.083,254.896,251.982z"/>
					<path style="fill:#CFDEFF;" d="M237.6,239.762l-0.922-0.54c-0.149-0.087-0.39-0.085-0.539,0.004l-0.883,0.53
						c-0.15,0.09-0.151,0.234-0.002,0.322l0.919,0.544c0.15,0.089,0.393,0.087,0.543-0.004l0.885-0.534
						C237.751,239.995,237.75,239.85,237.6,239.762z"/>
					<path style="fill:#CFDEFF;" d="M239.311,240.764l-0.932-0.546c-0.151-0.088-0.394-0.087-0.543,0.004l-0.885,0.535
						c-0.15,0.091-0.15,0.236,0,0.325l0.93,0.55c0.151,0.09,0.396,0.088,0.547-0.003l0.887-0.539
						C239.464,240.999,239.462,240.853,239.311,240.764z"/>
					<path style="fill:#CFDEFF;" d="M241.041,241.778l-0.944-0.553c-0.152-0.089-0.397-0.088-0.547,0.003l-0.888,0.54
						c-0.151,0.091-0.149,0.239,0.003,0.329l0.941,0.557c0.153,0.091,0.4,0.09,0.551-0.003l0.89-0.544
						C241.198,242.015,241.195,241.868,241.041,241.778z"/>
					<path style="fill:#CFDEFF;" d="M242.793,242.804l-0.955-0.559c-0.154-0.09-0.401-0.089-0.551,0.003l-0.891,0.544
						c-0.151,0.092-0.149,0.241,0.005,0.332l0.953,0.564c0.155,0.092,0.404,0.091,0.555-0.002l0.893-0.549
						C242.953,243.044,242.949,242.895,242.793,242.804z"/>
					<path style="fill:#CFDEFF;" d="M244.566,243.842l-0.966-0.566c-0.156-0.091-0.405-0.09-0.556,0.002l-0.893,0.549
						c-0.151,0.093-0.148,0.243,0.008,0.335l0.964,0.57c0.157,0.093,0.408,0.092,0.559-0.002l0.896-0.554
						C244.728,244.085,244.723,243.934,244.566,243.842z"/>
					<path style="fill:#CFDEFF;" d="M246.36,244.893l-0.978-0.573c-0.158-0.093-0.409-0.092-0.56,0.002l-0.896,0.554
						c-0.152,0.094-0.147,0.246,0.01,0.339l0.976,0.577c0.159,0.094,0.411,0.094,0.564-0.001l0.898-0.559
						C246.526,245.138,246.519,244.986,246.36,244.893z"/>
					<path style="fill:#CFDEFF;" d="M248.176,245.957l-0.99-0.58c-0.16-0.094-0.413-0.093-0.564,0.001l-0.898,0.559
						c-0.152,0.095-0.146,0.248,0.013,0.343l0.988,0.584c0.161,0.095,0.415,0.095,0.568-0.001l0.901-0.564
						C248.345,246.205,248.337,246.051,248.176,245.957z"/>
					<path style="fill:#CFDEFF;" d="M250.015,247.033l-1.002-0.587c-0.162-0.095-0.417-0.094-0.569,0.001l-0.901,0.564
						c-0.153,0.096-0.146,0.251,0.016,0.346l1,0.592c0.163,0.096,0.419,0.096,0.572,0l0.903-0.569
						C250.187,247.284,250.178,247.129,250.015,247.033z"/>
					<path style="fill:#CFDEFF;" d="M250.415,249.048c0.165,0.098,0.423,0.098,0.577,0.001l0.906-0.574
						c0.153-0.097,0.143-0.254-0.022-0.351l-1.015-0.594c-0.164-0.096-0.42-0.096-0.573,0l-0.904,0.57
						c-0.153,0.097-0.145,0.253,0.019,0.35L250.415,249.048z"/>
					<path style="fill:#CFDEFF;" d="M253.76,249.227l-1.027-0.602c-0.166-0.097-0.424-0.097-0.577,0l-0.906,0.575
						c-0.154,0.097-0.144,0.256,0.022,0.354l1.025,0.606c0.167,0.099,0.427,0.099,0.581,0.001l0.909-0.579
						C253.939,249.484,253.927,249.325,253.76,249.227z"/>
					<path style="fill:#CFDEFF;" d="M256.752,250.98l-2.188-1.282c-0.107-0.063-0.273-0.063-0.371-0.001l-1.111,0.709
						c-0.098,0.063-0.091,0.165,0.016,0.228l2.183,1.292c0.108,0.064,0.276,0.065,0.375,0.001l1.115-0.718
						C256.87,251.146,256.861,251.043,256.752,250.98z"/>
				</g>
			</g>
		</g>
		<g>
			<path style="fill:#31394C;" d="M254.802,327.428c-2.897,0.857-5.585,2.447-8.537,3.185c-2.589,0.843-5.219,1.468-7.85,2.154
				c-1.667,0.435-3.342,0.994-4.742,2.028c-0.632,0.467-0.522,1.449-0.46,2.137c0.104,1.154,1.641,1.717,2.56,2.029
				c1.275,0.433,2.649,0.618,3.988,0.416c1.807-0.274,3.265-1.193,4.78-2.138c1.393-0.868,2.811-1.699,4.28-2.431
				c1.432-0.714,2.945-1.199,4.397-1.863c1.386-0.633,2.445-1.604,2.581-3.184c0.035-0.407,0.068-0.824,0.005-1.23
				c-0.061-0.387-0.217-0.771-0.505-1.038c-0.061-0.057-0.133-0.11-0.216-0.121c-0.065-0.008-0.13,0.01-0.193,0.028
				C254.86,327.411,254.831,327.419,254.802,327.428z"/>
			<path style="fill:#546FBF;" d="M251.523,325.117c-0.458-0.028-0.926-0.019-1.391,0.014c-1.133,0.08-2.255,0.271-3.386,0.38
				c-1.215,0.117-2.371,0.014-3.581-0.103c-0.374-0.036-0.749-0.066-1.125-0.073c-3.021-0.056-6.078,1.89-7.557,4.503
				c-0.009-0.005-0.017-0.013-0.027-0.009c-1.244,0.523-0.739,2.219-0.845,3.259c-0.076,0.742-0.428,1.503-0.367,2.251
				c0.051,0.613,0.475,1.009,0.954,1.345c1.815,1.272,4.289,1.748,6.443,1.143c1.673-0.47,3.077-1.472,4.576-2.319
				c1.865-1.054,3.752-2.134,5.745-2.922c1.034-0.409,2.13-0.727,3.063-1.355c1.209-0.814,2.147-2.221,1.502-3.68
				C254.761,325.818,253.209,325.219,251.523,325.117z"/>
			<path style="fill:#2B3D89;" d="M249.451,327.318c-0.877-0.695-1.898-1.336-2.966-1.792c-1.12,0.08-2.198-0.009-3.321-0.117
				c-0.373-0.036-0.747-0.066-1.123-0.073c-0.473,0.209-0.923,0.486-1.334,0.839c-0.05,0.043-0.073,0.094-0.085,0.147
				c-0.042,0.049-0.082,0.099-0.115,0.139c-0.2,0.245-0.36,0.525-0.457,0.827c-0.217,0.676,0.031,1.293,0.397,1.861
				c0.364,0.566,0.725,1.086,1.28,1.479c0.245,0.174,0.544,0.339,0.84,0.398c0.264,0.052,0.65,0.092,0.864-0.096
				c0.036-0.031,0.049-0.079,0.052-0.127c1.444-0.775,2.954-1.071,4.566-1.284c0.6-0.079,1.593-0.153,2.001-0.673
				C250.472,328.307,249.86,327.642,249.451,327.318z"/>
			<path style="fill:#31394C;" d="M240.526,318.293c-2.896,0.857-5.585,2.447-8.537,3.185c-2.589,0.844-5.219,1.468-7.85,2.155
				c-1.667,0.435-3.342,0.994-4.742,2.028c-0.632,0.467-0.521,1.449-0.46,2.137c0.104,1.154,1.641,1.717,2.56,2.029
				c1.275,0.433,2.65,0.618,3.988,0.416c1.807-0.274,3.264-1.193,4.78-2.138c1.392-0.868,2.81-1.699,4.28-2.431
				c1.432-0.714,2.945-1.2,4.397-1.863c1.386-0.633,2.444-1.604,2.581-3.184c0.035-0.407,0.068-0.824,0.005-1.23
				c-0.061-0.387-0.217-0.771-0.505-1.038c-0.061-0.057-0.133-0.11-0.216-0.121c-0.065-0.008-0.13,0.01-0.193,0.028
				C240.584,318.276,240.555,318.285,240.526,318.293z"/>
			<path style="fill:#546FBF;" d="M237.247,315.982c-0.458-0.028-0.926-0.019-1.391,0.014c-1.134,0.08-2.255,0.271-3.386,0.38
				c-1.215,0.117-2.371,0.014-3.581-0.103c-0.374-0.036-0.749-0.066-1.125-0.073c-3.021-0.056-6.078,1.89-7.557,4.503
				c-0.009-0.005-0.017-0.013-0.027-0.008c-1.244,0.522-0.739,2.219-0.845,3.259c-0.076,0.742-0.428,1.503-0.367,2.251
				c0.051,0.613,0.475,1.009,0.954,1.345c1.815,1.272,4.289,1.748,6.443,1.143c1.673-0.47,3.077-1.472,4.576-2.319
				c1.865-1.054,3.752-2.134,5.745-2.921c1.034-0.409,2.13-0.727,3.063-1.355c1.208-0.814,2.147-2.222,1.502-3.68
				C240.484,316.683,238.933,316.084,237.247,315.982z"/>
			<path style="fill:#2B3D89;" d="M235.039,319.897c0.422-0.538-0.189-1.204-0.598-1.528c-0.985-0.78-2.15-1.494-3.362-1.95
				c-0.727-0.014-1.449-0.074-2.19-0.145c-0.374-0.036-0.749-0.066-1.125-0.073c-0.099-0.002-0.198,0.016-0.297,0.018
				c-0.635,0.212-1.235,0.548-1.77,1.006c-0.05,0.043-0.073,0.094-0.085,0.147c-0.042,0.049-0.082,0.099-0.115,0.139
				c-0.2,0.246-0.36,0.525-0.458,0.827c-0.217,0.676,0.031,1.293,0.397,1.861c0.363,0.566,0.725,1.086,1.28,1.479
				c0.245,0.174,0.544,0.339,0.84,0.398c0.264,0.052,0.65,0.092,0.864-0.096c0.036-0.031,0.049-0.079,0.052-0.127
				c1.444-0.775,2.954-1.071,4.566-1.284C233.638,320.491,234.631,320.417,235.039,319.897z"/>
			<g style="opacity:0.3;">
				<path style="fill:#808080;" d="M179.301,333.778c0.488-0.282,1.274-0.319,1.831-0.064l17.066,8.821l15-11.035
					c0.029-0.02,0.06-0.04,0.092-0.058c0.409-0.236,1.363-1.072,1.908-0.918c0.684,0.191,0.648,1.43,0.317,1.827l-10.091,12.314
					l24.834,3.531c0.151,0.028,0.61-0.642,0.732-0.587c0.366,0.164,0.261,1.145,0.202,1.431c-0.034,0.189-0.18,0.355-0.396,0.48
					c-0.285,0.165-0.692,0.256-1.125,0.23l-25.548-0.452l2.637,11.142l-0.005,0.811c0.045,0.246-0.108,0.483-0.399,0.651
					c-0.15,0.086-0.336,0.154-0.55,0.196c-0.729,0.134-1.505-0.097-1.73-0.516l-7.956-11.547l-20.759,5.418
					c-0.568,0.159-1.269,0.078-1.672-0.219c-0.449-0.319-0.611-1.424-0.111-1.713c0.033-0.019,0.486-0.083,0.523-0.1l18.373-7.582
					l-13.287-11.003c-0.382-0.284-0.595-1.429-0.199-1.726C179.025,333.084,179.261,333.801,179.301,333.778"/>
			</g>
			<g>
				<g>
					<path style="fill:#1B1F2D;" d="M229.887,342.47c1.48-0.855,2.676-0.163,2.681,1.528c0.005,1.701-1.183,3.758-2.663,4.613
						c-1.471,0.849-2.666,0.168-2.671-1.533C227.228,345.387,228.416,343.319,229.887,342.47"/>
				</g>
				<polygon style="fill:#1B1F2D;" points="230.68,350.351 228.109,348.844 231.793,342.289 234.46,343.843 				"/>
				<g>
					<path style="fill:#1B1F2D;" d="M232.593,344.048c1.48-0.855,2.676-0.163,2.681,1.528c0.005,1.701-1.183,3.758-2.663,4.613
						c-1.471,0.849-2.666,0.168-2.671-1.533C229.934,346.965,231.122,344.897,232.593,344.048"/>
				</g>
				<g>
					<path style="fill:#31394C;" d="M232.594,344.221c1.396-0.806,2.524-0.154,2.529,1.441c0.005,1.605-1.116,3.546-2.512,4.352
						c-1.388,0.801-2.516,0.158-2.52-1.446C230.086,346.974,231.206,345.023,232.594,344.221"/>
				</g>
			</g>
			<g>
				<g>
					<path style="fill:#1B1F2D;" d="M204.469,355.279c1.48-0.855,2.676-0.163,2.681,1.527c0.005,1.701-1.183,3.758-2.663,4.613
						c-1.471,0.849-2.667,0.168-2.671-1.533C201.81,358.196,202.998,356.128,204.469,355.279"/>
				</g>
				<polygon style="fill:#1B1F2D;" points="205.262,363.16 202.691,361.653 206.375,355.098 209.042,356.652 				"/>
				<g>
					<path style="fill:#1B1F2D;" d="M207.175,356.857c1.48-0.855,2.676-0.163,2.681,1.527c0.005,1.701-1.183,3.758-2.663,4.613
						c-1.471,0.849-2.666,0.168-2.671-1.533C204.516,359.774,205.704,357.706,207.175,356.857"/>
				</g>
				<g>
					<path style="fill:#31394C;" d="M207.176,357.03c1.396-0.806,2.524-0.153,2.529,1.441c0.005,1.605-1.116,3.546-2.512,4.352
						c-1.388,0.801-2.516,0.159-2.52-1.446C204.668,359.783,205.788,357.832,207.176,357.03"/>
				</g>
			</g>
			<g>
				<g>
					<path style="fill:#1B1F2D;" d="M173.266,348.649c1.48-0.855,2.676-0.163,2.681,1.528c0.005,1.701-1.183,3.758-2.663,4.613
						c-1.471,0.849-2.667,0.168-2.671-1.533C170.607,351.566,171.795,349.498,173.266,348.649"/>
				</g>
				<polygon style="fill:#1B1F2D;" points="174.06,356.53 171.488,355.023 175.172,348.468 177.84,350.022 				"/>
				<g>
					<path style="fill:#1B1F2D;" d="M175.972,350.227c1.48-0.855,2.676-0.163,2.681,1.528c0.005,1.701-1.183,3.758-2.663,4.613
						c-1.471,0.849-2.666,0.168-2.671-1.533C173.314,353.144,174.501,351.076,175.972,350.227"/>
				</g>
				<g>
					<path style="fill:#31394C;" d="M175.973,350.401c1.396-0.806,2.524-0.153,2.529,1.441c0.005,1.605-1.116,3.546-2.512,4.352
						c-1.388,0.801-2.516,0.158-2.52-1.446C173.465,353.153,174.585,351.202,175.973,350.401"/>
				</g>
			</g>
			<g>
				<g>
					<path style="fill:#1B1F2D;" d="M178.088,328.81c1.48-0.855,2.676-0.163,2.681,1.527c0.005,1.701-1.183,3.758-2.663,4.613
						c-1.471,0.849-2.666,0.168-2.671-1.533C175.429,331.727,176.617,329.659,178.088,328.81"/>
				</g>
				<polygon style="fill:#1B1F2D;" points="178.882,336.691 176.31,335.183 179.994,328.629 182.661,330.182 				"/>
				<g>
					<path style="fill:#1B1F2D;" d="M180.794,330.387c1.48-0.855,2.676-0.163,2.68,1.527c0.005,1.701-1.183,3.758-2.663,4.613
						c-1.471,0.849-2.666,0.168-2.671-1.533C178.135,333.305,179.323,331.237,180.794,330.387"/>
				</g>
				<g>
					<path style="fill:#31394C;" d="M180.795,330.561c1.396-0.806,2.524-0.153,2.529,1.441c0.004,1.605-1.116,3.546-2.513,4.352
						c-1.388,0.801-2.515,0.158-2.52-1.446C178.287,333.313,179.407,331.362,180.795,330.561"/>
				</g>
			</g>
			<g>
				<g>
					<path style="fill:#1B1F2D;" d="M213.947,325.467c1.48-0.855,2.676-0.163,2.68,1.528c0.005,1.701-1.183,3.758-2.663,4.613
						c-1.471,0.849-2.666,0.168-2.671-1.533C211.288,328.384,212.476,326.316,213.947,325.467"/>
				</g>
				<polygon style="fill:#1B1F2D;" points="214.74,333.348 212.169,331.841 215.853,325.286 218.52,326.84 				"/>
				<g>
					<path style="fill:#1B1F2D;" d="M216.653,327.045c1.48-0.855,2.676-0.163,2.681,1.528c0.005,1.701-1.183,3.758-2.663,4.613
						c-1.471,0.849-2.666,0.168-2.671-1.533C213.994,329.962,215.182,327.894,216.653,327.045"/>
				</g>
				<g>
					<path style="fill:#31394C;" d="M216.654,327.219c1.396-0.806,2.524-0.153,2.529,1.441c0.005,1.605-1.116,3.546-2.512,4.352
						c-1.388,0.801-2.516,0.158-2.52-1.446C214.146,329.971,215.266,328.02,216.654,327.219"/>
				</g>
			</g>
			<g>
				<path style="fill:#A6BFFF;" d="M179.301,328.374c0.488-0.282,1.274-0.319,1.831-0.064l17.066,7.154l15-9.368
					c0.029-0.02,0.06-0.04,0.092-0.058c0.409-0.236,1.363-1.072,1.908-0.918c0.684,0.191,0.648,1.43,0.317,1.827l-10.091,10.647
					l24.834,5.198c0.151,0.028,0.61-0.642,0.732-0.587c0.366,0.164,0.261,1.146,0.202,1.432c-0.034,0.189-0.18,0.355-0.396,0.48
					c-0.285,0.165-0.692,0.256-1.125,0.23l-25.548-2.119l2.637,12.809l-0.005,0.811c0.045,0.246-0.108,0.483-0.399,0.651
					c-0.15,0.086-0.336,0.154-0.55,0.196c-0.729,0.134-1.505-0.097-1.73-0.516l-7.956-13.214l-20.759,7.085
					c-0.568,0.159-1.269,0.078-1.672-0.219c-0.449-0.32-0.611-1.424-0.111-1.713c0.033-0.019,0.486-0.083,0.523-0.1l18.373-9.249
					l-13.287-9.336c-0.382-0.285-0.595-1.429-0.199-1.726C179.025,327.681,179.261,328.397,179.301,328.374"/>
			</g>
			<g>
				<path style="fill:#CFDEFF;" d="M179.301,327.428c0.488-0.282,1.274-0.319,1.831-0.064l17.066,5.184l15-7.337
					c0.029-0.02,0.06-0.04,0.092-0.058c0.409-0.236,1.043-0.311,1.588-0.157c0.684,0.191,0.968,0.669,0.636,1.066l-10.091,8.616
					l24.834,7.197c0.604,0.112,1.012,0.463,0.934,0.844c-0.034,0.189-0.18,0.355-0.396,0.48c-0.285,0.165-0.692,0.256-1.125,0.23
					l-25.548-4.117l2.632,15.652c0.045,0.246-0.108,0.483-0.399,0.651c-0.15,0.086-0.336,0.154-0.55,0.196
					c-0.729,0.134-1.505-0.097-1.73-0.516l-7.956-15.245l-20.759,9.195c-0.568,0.159-1.269,0.078-1.672-0.219
					c-0.449-0.319-0.393-0.782,0.106-1.07c0.033-0.019,0.068-0.038,0.105-0.055l18.573-12.046l-13.287-7.366
					c-0.382-0.285-0.396-0.688,0-0.985C179.224,327.475,179.261,327.451,179.301,327.428"/>
			</g>
			<path style="fill:#A6BFFF;" d="M203.566,327.544v7.976h0c-0.007,0.668-0.455,1.336-1.339,1.846c-1.767,1.02-4.603,1.02-6.359,0
				c-0.878-0.51-1.318-1.178-1.318-1.846v-7.807L203.566,327.544z"/>
			<g>
				<path style="fill:#CFDEFF;" d="M195.875,325.868c1.767-1.02,4.633-1.02,6.388,0c1.755,1.02,1.731,2.672-0.036,3.692
					c-1.767,1.02-4.603,1.02-6.359,0C194.114,328.539,194.108,326.888,195.875,325.868"/>
			</g>
			<path style="fill:#91AAF2;" d="M203.191,320.315v7.312h0c-0.007,0.612-0.417,1.224-1.227,1.692c-1.62,0.935-4.22,0.935-5.829,0
				c-0.805-0.468-1.208-1.08-1.208-1.692v-7.157L203.191,320.315z"/>
			<g>
				<path style="fill:#A6BFFF;" d="M196.14,318.778c1.62-0.935,4.247-0.935,5.856,0c1.609,0.935,1.587,2.449-0.033,3.384
					c-1.62,0.935-4.22,0.935-5.829,0C194.525,321.227,194.52,319.714,196.14,318.778"/>
			</g>
			<path style="fill:#1B1F2D;" d="M182.815,301.46c7.558,11.106,35.423-14.41,35.423-14.41c-1.925,8.766,2.935,14.498,1.275,32.487
				c-0.035,0.375,0.065,0.753,0.292,1.055c0.569,0.757,1.81,2.134,3.478,2.419c2.963,0.507,4.716-0.538,5.478-1.178
				c0.29-0.244,0.465-0.585,0.503-0.962c0.334-3.367,2.203-22.39,2.475-29.26c0.21-5.288,1.068-16.236-7.527-18.076
				c-6.214-1.33-26.8,6.738-26.8,6.738S174.472,289.199,182.815,301.46z"/>
			<g>
				<path style="fill:#2B3D89;" d="M235.41,298.011l-25.892-14.949c-4.104-2.369-10.674-2.463-14.944-0.212l-28.141,14.834
					c-4.573,2.413-4.717,6.552-0.333,9.083l28.522,16.467c4.39,2.535,11.536,2.438,15.679-0.223l25.518-16.349
					C239.691,304.183,239.508,300.377,235.41,298.011"/>
			</g>
			<path style="fill:#354D9B;" d="M165.648,298.145c0.245-0.159,0.506-0.313,0.785-0.46l28.142-14.834
				c4.27-2.251,10.84-2.158,14.944,0.212l25.892,14.949c1.138,0.657,1.962,1.427,2.493,2.246c-2.318,2.71-7.541,3.9-10.451,5.095
				c-5.251,2.157-9.874,5.501-14.564,8.64c-2.318,1.552-4.603,3.323-7.351,3.958c-2.897,0.67-5.985,0.542-8.798-0.436
				c-4.748-1.651-8.434-5.549-12.697-8.09c-2.593-1.545-5.331-2.845-8.167-3.876c-2.306-0.839-4.572-1.889-6.782-2.958
				c-1.405-0.68-2.871-1.737-3.314-3.315C165.675,298.901,165.637,298.522,165.648,298.145z"/>
			<path style="fill:#F2C599;" d="M211.035,213.062c0.022-0.607-1.389-3.258-2.045-4.456c-0.581-3.921-1.223-7.087-1.223-7.087
				c-4.431-3.761-14.98,12.543-14.98,12.543l-1.144,14.986c5.685,5.233,10.96,2.269,10.96,2.269
				c0.116-6.798,4.558-5.488,6.569-8.447c0.861-1.267,0.859-4.677,0.529-8.408C210.334,214.04,211.02,213.488,211.035,213.062z"/>
			<path style="fill:#31394C;" d="M192.021,225.717c5.456,1.652,8.529-0.835,10.058-5.4c0,0,0.362-0.541-1.729-1.17
				c-2.091-0.629-2.916-7.082-0.766-6.579c2.15,0.502,2.05,3.449,2.966,3.699c0.915,0.249,1.424-0.614,0.744-2.669
				s3.275-2.526,2.007-4.899c-1.268-2.373-0.393-5.013,2.09-6.178c2.482-1.166,0.884-10.719-1.026-10.165s-2.286,2.465-3.417,0.269
				c-1.131-2.196-2.032-3.863-3.732-2.887c-1.7,0.976-0.623,2.256-2.62,1.444c-1.998-0.812-2.392-0.244-3.082,1.174
				c-0.69,1.418,0.469,2.252-1.826,2.45c-2.295,0.198-1.547,2.222-3.723,4.128c-2.177,1.906-6.083,2.822-5.705,9.541
				C182.636,215.193,187.084,224.222,192.021,225.717z"/>
			<path style="fill:#546FBF;" d="M211.616,219.564c-0.055-0.258-0.307-0.251-0.519-0.262c-0.314-0.016-0.63-0.026-0.945-0.043
				c-0.925-0.049-1.84-0.117-2.745-0.323c-0.665-0.15-1.313-0.367-1.945-0.623c-0.311-0.126-0.619-0.262-0.923-0.406
				c-0.278-0.131-0.557-0.304-0.86-0.368c-0.208-0.044-0.375,0.097-0.419,0.298c-0.087,0.4,0.434,0.58,0.707,0.728
				c0.412,0.223,0.835,0.425,1.267,0.606c1.655,0.691,3.455,1.121,5.254,1.098c0.274-0.003,0.552-0.061,0.812-0.153
				c0.193-0.068,0.327-0.226,0.33-0.436C211.632,219.642,211.624,219.602,211.616,219.564z"/>
			<path style="fill:#1B1F2D;" d="M214.402,219.541c-0.042-0.395-0.259-0.833-0.638-0.943c-0.152-0.044-0.312-0.045-0.47-0.044
				c-0.461,0.004-0.924,0.026-1.38,0.104c-0.41,0.07-0.91,0.154-1.181,0.505c-0.214,0.277-0.169,0.68-0.032,0.987
				c0.162,0.366,0.487,0.468,0.851,0.531c0.604,0.104,1.323,0.137,1.927,0.019c0.488-0.096,0.88-0.394,0.927-0.919
				C214.412,219.706,214.411,219.624,214.402,219.541z"/>
			<g>
				<g>
					<path style="fill:#1B1F2D;" d="M200.529,211.981c1.619-0.934,2.926-0.178,2.931,1.67c0.005,1.86-1.294,4.109-2.912,5.044
						c-1.608,0.929-2.916,0.184-2.921-1.676C197.622,215.171,198.921,212.91,200.529,211.981"/>
				</g>
				<polygon style="fill:#1B1F2D;" points="201.397,220.599 198.585,218.95 202.613,211.783 205.53,213.482 				"/>
				<g>
					<path style="fill:#1B1F2D;" d="M203.488,213.706c1.619-0.935,2.926-0.178,2.931,1.67c0.005,1.86-1.294,4.109-2.912,5.044
						c-1.608,0.929-2.916,0.184-2.921-1.676C200.581,216.896,201.88,214.635,203.488,213.706"/>
				</g>
				<g>
					<path style="fill:#31394C;" d="M203.489,213.896c1.527-0.882,2.76-0.168,2.765,1.576c0.005,1.755-1.22,3.877-2.747,4.758
						c-1.517,0.876-2.751,0.173-2.756-1.581C200.746,216.905,201.972,214.772,203.489,213.896"/>
				</g>
				<g>
					<path style="fill:none;stroke:#546FBF;stroke-width:0.2;stroke-miterlimit:10;" d="M203.491,214.343
						c1.245-0.757,2.251-0.144,2.255,1.353c0.004,1.507-0.995,3.33-2.241,4.087c-1.238,0.752-2.243,0.149-2.247-1.358
						C201.255,216.928,202.254,215.095,203.491,214.343"/>
				</g>
			</g>
			<path style="fill:#F2C599;" d="M187.762,251.514l-0.471,4.992c3.946-1.622,7.885-3.259,11.816-4.917
				c1.792-0.756,3.585-1.523,5.287-2.47c0.915-0.509,1.876-0.978,2.672-1.669c0.99-0.859,1.243-1.777,1.41-3.033
				c0.08-0.602,0.438-1.516,1.212-1.382c0.492,0.085,0.653,0.787,1.069,0.736c0.493-0.061,0.965-0.453,1.359-0.729
				c0.444-0.311,0.86-0.638,1.373-0.821c0.533-0.19,1.107-0.336,1.674-0.229c0.132,0.025,0.268,0.067,0.362,0.164
				c0.094,0.097,0.128,0.262,0.044,0.367c0.416-0.126,0.863-0.147,1.289-0.06c0.201,0.041,0.406,0.11,0.549,0.258
				c0.143,0.147,0.203,0.39,0.092,0.563c0.303-0.05,0.616-0.083,0.915-0.014c0.299,0.069,0.585,0.258,0.701,0.543
				c0.166,0.41-0.055,0.865-0.271,1.251c0.171-0.065,0.36-0.12,0.534-0.064c0.19,0.062,0.319,0.25,0.353,0.447
				c0.034,0.196-0.015,0.399-0.091,0.583c-0.096,0.234-0.237,0.45-0.413,0.633c-0.178,0.185-0.389,0.334-0.599,0.482
				c-0.901,0.635-1.755,1.287-2.686,1.877c-1.264,0.801-2.527,1.602-3.791,2.402c-2.661,1.687-5.477,3.253-8.022,5.106
				c-2.502,1.822-5.131,3.529-7.769,5.156c-3.708,2.288-7.519,4.723-11.579,6.346c-0.547,0.219-1.168,0.493-1.769,0.493
				c-4.735,0-6.457-4.647-5.856-14.812L187.762,251.514z"/>
			<path style="fill:#DB3E3E;" d="M188.483,255.445c0,0-4.192,2.468-12.361,2.593c0,0,0.18-19.91,5.251-24.425
				C186.444,229.098,189.107,241.495,188.483,255.445z"/>
			<path style="fill:#31394C;" d="M238.131,280.979c-6.214-1.33-27.911,4.456-27.911,4.456l-30.924-3.501
				c0,0-2.624,12.897,0.123,18.063c2.747,5.166,10.354,8.164,17.728,10.457c12.828,3.99,35.423-14.41,35.423-14.41
				c-0.022,0.099-0.038,0.196-0.058,0.294l0,0l2.899,1.674c4.098,2.366,4.28,6.171,0.408,8.652l-2.591,1.66v0
				c0.919,4.958,1.96,11.089,1.086,20.521c-0.03,0.323,0.036,0.656,0.208,0.931c0.431,0.69,1.426,1.944,3.093,2.229
				c2.937,0.502,5.12-0.504,6.146-1.136c0.405-0.25,0.664-0.674,0.693-1.15c0.231-3.813,1.348-22.356,1.616-29.114
				C246.279,295.316,246.725,282.818,238.131,280.979z"/>
			<path style="fill:#31394C;" d="M179.295,281.933c0,0-0.954,4.696-1.108,9.556l15.119-7.97L179.295,281.933z"/>
			<path style="fill:#2B3D89;" d="M212.58,284.83l-3.061-1.767c-4.104-2.369-10.674-2.463-14.944-0.212l-1.268,0.668l16.913,1.915
				C210.219,285.435,211.115,285.196,212.58,284.83z"/>
			<g>
				<path style="fill:#252C3A;" d="M232.511,296.338L232.511,296.338l2.559,1.477c0-0.001,0-0.003,0-0.004
					c0.067-0.814,0.287-1.586,0.397-2.388c0.059-0.431,0.178-0.836-0.151-1.189c-0.727-0.782-2.202,0.069-2.936,0.359
					c-3.42,1.353-6.715,2.963-9.932,4.743c-3.313,1.832-6.608,3.583-10.368,4.289c-3.986,0.748-8.349,0.979-12.337,0.145
					c-3.91-0.818-9.496-3.203-11.68-6.621c-2.709-4.239-2.253-13.681-2.253-13.681c-0.075-0.289-0.162-0.563-0.259-0.826
					l-6.257-0.708c0,0-2.624,12.897,0.123,18.063c2.747,5.166,10.354,8.164,17.728,10.457c12.828,3.99,35.423-14.41,35.423-14.41
					C232.547,296.142,232.531,296.239,232.511,296.338z"/>
				<path style="fill:#252C3A;" d="M237.492,318.077c0.046-4.024-0.922-7.697-1.666-11.419c-0.003,0.002-0.005,0.003-0.007,0.005
					l-2.591,1.66v0c0.919,4.958,1.96,11.089,1.086,20.521c-0.03,0.323,0.036,0.656,0.208,0.931c0.431,0.69,1.426,1.944,3.093,2.229
					c0.201,0.034,0.39,0.046,0.584,0.067c-0.109-0.63-0.199-1.263-0.244-1.9C237.682,326.311,237.448,321.929,237.492,318.077z"/>
			</g>
			<path style="fill:#F24B4B;" d="M212.227,239.795c0,0-4.973-6.284-9.623-8.478c0,0-3.285-0.333-6.323-0.558
				c-2.673-0.198-4.637-1.711-4.637-1.711s-6.054,1.404-8.78,3.513c-2.859,2.212-5.589,13.02-4.473,21.776
				c1.116,8.756,0.441,21.061,0,24.322c-0.846,6.252,5.127,12.057,12.966,12.614c10.287,0.73,21.744-1.766,21.372-6.876
				C211.921,273.276,212.227,239.795,212.227,239.795z"/>
			<path style="fill:#F2C599;" d="M216.983,264.683l0.205,5.107c3.945-1.622,7.885-3.26,11.816-4.917
				c1.792-0.756,3.585-1.523,5.287-2.47c0.915-0.509,1.876-0.978,2.672-1.669c0.99-0.859,1.243-1.777,1.411-3.033
				c0.08-0.602,0.438-1.516,1.212-1.382c0.492,0.085,0.653,0.787,1.069,0.736c0.493-0.061,0.965-0.453,1.359-0.729
				c0.444-0.311,0.86-0.638,1.373-0.821c0.533-0.19,1.107-0.336,1.674-0.229c0.132,0.025,0.268,0.067,0.362,0.164
				c0.094,0.097,0.128,0.262,0.044,0.367c0.416-0.126,0.863-0.147,1.289-0.06c0.201,0.041,0.406,0.11,0.549,0.258
				c0.143,0.148,0.203,0.39,0.092,0.563c0.303-0.05,0.616-0.083,0.915-0.014s0.585,0.258,0.701,0.543
				c0.166,0.41-0.055,0.865-0.271,1.251c0.171-0.065,0.36-0.12,0.534-0.064c0.19,0.061,0.319,0.25,0.353,0.447
				c0.034,0.197-0.015,0.399-0.091,0.583c-0.096,0.234-0.237,0.45-0.413,0.633c-0.178,0.185-0.389,0.334-0.599,0.482
				c-0.901,0.635-1.755,1.287-2.686,1.877c-1.264,0.801-2.527,1.602-3.791,2.402c-2.661,1.687-5.477,3.253-8.022,5.106
				c-2.502,1.822-5.131,3.529-7.768,5.156c-3.708,2.288-7.52,4.723-11.58,6.346c-0.546,0.219-1.168,0.492-1.769,0.492
				c-4.735,0-6.72-5.184-6.119-15.348L216.983,264.683z"/>
			<path style="fill:#DB3E3E;" d="M218.62,265.116c0,0-5.234,3.053-13.384,3.707c0,0-1.217-22.845,3.596-28.267
				C213.645,235.133,218.47,249.307,218.62,265.116z"/>
			<path style="fill:#405DAD;" d="M160.261,255.021c0.286,0.175,0.588,0.113,0.814-0.06c0.523,5.169,2.589,10.293,4.52,15.06
				c4.611,11.392,11.708,21.804,19.584,31.08c1.618,1.905,3.038,4.436,5.246,5.711c2.48,1.432,5.802,1.048,7.721-1.129
				c1.335-1.515,1.948-3.54,2.243-5.538c0.782-5.302,0.861-10.743,0.403-16.077c-0.422-4.907,0.21-10.116-1.563-14.819
				c-1.491-3.955-4.612-7.168-8.005-9.577c-3.553-2.523-7.558-4.275-11.442-6.203c-3.474-1.725-6.985-4.166-10.906-4.685
				c-2.488-0.329-6.295-0.41-8.342,1.337C159.049,251.387,158.365,253.861,160.261,255.021z"/>
			<g>
				<path style="fill:#2B3D89;" d="M164.653,251.159l25.839,14.918c3.329,1.922,6.024,6.58,6.013,10.415l-0.077,27.195
					c-0.011,3.826-2.723,5.371-6.053,3.449l-25.839-14.918c-3.329-1.922-6.024-6.59-6.013-10.415l0.077-27.195
					C158.611,250.773,161.324,249.237,164.653,251.159"/>
			</g>
			<path style="fill:#CFDEFF;" d="M172.75,315.951l7.402,4.252l-0.859-45.984c-0.005-0.26-0.145-0.498-0.369-0.629l-6.677-3.895
				c-0.496-0.289-1.119,0.068-1.119,0.643v42.811C171.128,314.306,171.747,315.375,172.75,315.951z"/>
			<polygon style="fill:#91AAF2;" points="185.385,317.902 180.166,314.889 179.737,318.528 181.806,320.202 			"/>
			<path style="fill:#A6BFFF;" d="M185.385,317.902l-2.257,1.303c-1.626,0.939-2.952,0.183-2.957-1.685l-0.08-43.479
				c-0.001-0.434-0.235-0.835-0.613-1.049l-6.465-3.652c-0.252-0.142-0.559-0.148-0.816-0.014l-0.622,0.324
				c0,0,0.352-0.134,0.672,0.044l6.422,3.773c0.368,0.216,0.595,0.611,0.596,1.039l0.08,43.491c0.007,2.392,1.708,3.358,3.787,2.158
				l3.078-1.777L185.385,317.902z"/>
			<g>
				<polygon style="fill:#91AAF2;" points="217.871,318.778 217.218,318.581 216.379,300.27 219.175,299.934 				"/>
				<polygon style="fill:#A6BFFF;" points="217.871,318.778 217.777,299.75 223.156,297.148 222.004,316.397 				"/>
				<path style="fill:#A6BFFF;" d="M230.477,295.019v-1.576l-0.619,0.208l-0.812-1.793c-0.065-0.143-0.189-0.263-0.351-0.356
					c-0.499-0.288-1.356-0.324-1.912-0.001l-12.972,7.538l-4.824,1.62v1.534l0.003,0c0.014,0.196,0.153,0.387,0.397,0.528
					c0.162,0.093,0.369,0.165,0.616,0.202l5.457,0.82c0.444,0.256,4.166-1.49,8.311-3.899
					C227.919,297.437,230.921,295.275,230.477,295.019z"/>
				<g>
					<path style="fill:#CFDEFF;" d="M228.696,289.927c-0.499-0.288-1.356-0.324-1.912-0.001l-17.403,10.114
						c-0.557,0.323-0.492,0.819,0.008,1.108c0.162,0.093,0.369,0.165,0.616,0.202l5.457,0.821c0.444,0.256,4.166-1.49,8.311-3.899
						c4.146-2.409,7.148-4.571,6.705-4.827l-1.431-3.16C228.982,290.14,228.858,290.02,228.696,289.927"/>
				</g>
			</g>
			<path style="fill:#DB3E3E;" d="M189.989,229.486l1.821-2.608c0,0,4.577,2.317,11.11,1.912l1.325,3.427
				C204.245,232.217,194.17,233.334,189.989,229.486z"/>
			<path style="fill:#1B1F2D;" d="M199.365,215.083c0,0,1.018-7.525-2.248-11.03c-3.267-3.504-9.41-5.092-11.188-3.604
				c0,0,0.692-2.131,3.45-3.337c0,0,12.871-3.93,13.549,15.616L199.365,215.083z"/>
		</g>
	</g>
</g>
</svg>
